<?xml version="1.0" encoding="utf-8"?>
<!-- Generator: Adobe Illustrator 23.0.4, SVG Export Plug-In . SVG Version: 6.00 Build 0)  -->
<svg version="1.1" xmlns="http://www.w3.org/2000/svg" xmlns:xlink="http://www.w3.org/1999/xlink" x="0px" y="0px"
	 viewBox="0 0 2150 850" style="enable-background:new 0 0 2150 850;" xml:space="preserve">
<style type="text/css">
	.st0{display:none;}
	.st1{display:inline;fill-rule:evenodd;clip-rule:evenodd;fill:none;stroke:#E80A89;stroke-miterlimit:10;}
	.st2{display:inline;fill-rule:evenodd;clip-rule:evenodd;fill:none;stroke:#60C6D1;stroke-miterlimit:10;}
	.st3{display:inline;fill:#231F20;}
	.st4{display:inline;fill-rule:evenodd;clip-rule:evenodd;fill:none;stroke:#46B449;stroke-miterlimit:10;}
	.st5{fill:#FFFFFF;}
	.st6{display:inline;fill:none;stroke:#221F1F;stroke-width:8;stroke-miterlimit:10;}
	.st7{display:inline;fill-rule:evenodd;clip-rule:evenodd;fill:none;stroke:#221F1F;stroke-width:8;stroke-miterlimit:10;}
	.st8{display:inline;}
	.st9{fill:#221F1F;}
	.st10{display:inline;fill-rule:evenodd;clip-rule:evenodd;fill:#00A04A;}
</style>
<g id="L_CIRCLES" class="st0">
	<circle id="XMLID_175_" class="st1" cx="-6180.77" cy="-3002.65" r="251.96"/>
	<circle id="XMLID_174_" class="st1" cx="-5928.74" cy="-3002.65" r="251.96"/>
	<circle id="XMLID_173_" class="st1" cx="-6180.77" cy="-2750.65" r="251.96"/>
	<circle id="XMLID_172_" class="st1" cx="-6180.77" cy="-3254.65" r="251.96"/>
	<circle id="XMLID_171_" class="st1" cx="-6180.77" cy="-3254.65" r="251.96"/>
	<circle id="XMLID_170_" class="st1" cx="-6434.68" cy="-3002.65" r="251.96"/>
	<circle id="XMLID_790_" class="st1" cx="-1638.59" cy="-3002.65" r="251.96"/>
	<circle id="XMLID_75_" class="st1" cx="-1386.09" cy="-3002.65" r="251.96"/>
	<circle id="XMLID_79_" class="st1" cx="-1890.55" cy="-3002.65" r="251.96"/>
	<circle id="XMLID_788_" class="st1" cx="-1638.59" cy="-2750.65" r="251.96"/>
	<circle id="XMLID_787_" class="st1" cx="-1638.59" cy="-3254.65" r="251.96"/>
	<circle id="XMLID_786_" class="st1" cx="-1638.59" cy="-3254.65" r="251.96"/>
	<circle id="XMLID_514_" class="st1" cx="-6180.77" cy="-579.14" r="251.96"/>
	<circle id="XMLID_513_" class="st1" cx="-5928.74" cy="-579.14" r="251.96"/>
	<circle id="XMLID_512_" class="st1" cx="-6180.77" cy="-327.14" r="251.96"/>
	<circle id="XMLID_511_" class="st1" cx="-6180.77" cy="-831.14" r="251.96"/>
	<circle id="XMLID_510_" class="st1" cx="-6180.77" cy="-831.14" r="251.96"/>
	<circle id="XMLID_509_" class="st1" cx="-6434.68" cy="-579.14" r="251.96"/>
	<circle id="XMLID_407_" class="st1" cx="-4432.77" cy="-3002.65" r="251.96"/>
	<circle id="XMLID_406_" class="st1" cx="-4180.74" cy="-3002.65" r="251.96"/>
	<circle id="XMLID_405_" class="st1" cx="-4432.77" cy="-2750.65" r="251.96"/>
	<circle id="XMLID_404_" class="st1" cx="-4432.77" cy="-3254.65" r="251.96"/>
	<circle id="XMLID_403_" class="st1" cx="-4432.77" cy="-3254.65" r="251.96"/>
	<circle id="XMLID_402_" class="st1" cx="-4686.68" cy="-3002.65" r="251.96"/>
	<circle id="XMLID_1109_" class="st1" cx="-4180.74" cy="-579.13" r="251.96"/>
	<circle id="XMLID_1423_" class="st2" cx="-4432.77" cy="-453.16" r="125.98"/>
	<circle id="XMLID_1422_" class="st2" cx="-4432.77" cy="-705.11" r="125.98"/>
	<circle id="XMLID_1421_" class="st2" cx="-4432.77" cy="-831.09" r="125.98"/>
	<circle id="XMLID_1420_" class="st2" cx="-4432.77" cy="-327.18" r="125.98"/>
	<circle id="XMLID_1108_" class="st1" cx="-4432.77" cy="-831.13" r="251.96"/>
	<circle id="XMLID_1107_" class="st1" cx="-4432.77" cy="-831.13" r="251.96"/>
	<circle id="XMLID_1106_" class="st1" cx="-4686.68" cy="-579.13" r="251.96"/>
	<circle id="XMLID_1161_" class="st1" cx="-4432.77" cy="-579.13" r="251.96"/>
	<circle id="XMLID_1160_" class="st1" cx="-4432.77" cy="-327.13" r="251.96"/>
	<path id="XMLID_630_" class="st3" d="M3083.29,1800.52c-0.41,4.15,0.67,4.78,3.42,7.39c26.34,25.07,42.76,60.47,42.76,99.7
		c0,76-61.63,137.63-137.63,137.63c-76,0-137.64-61.63-137.64-137.63c0-76,61.63-137.64,137.64-137.64c10.49,0,20.7,1.17,30.52,3.4
		c4,0.91,5.73,1.31,9.14-0.93c-2.58-0.76-5.18-1.44-7.82-2.06l-0.08-0.02c-1.1-0.26-2.21-0.5-3.32-0.72l-0.12-0.02
		c-1.11-0.23-2.22-0.44-3.34-0.64l-0.1-0.02c-1.12-0.2-2.24-0.39-3.37-0.56l-0.12-0.02c-1.14-0.17-2.28-0.33-3.43-0.48l-0.05-0.01
		c-1.16-0.15-2.31-0.28-3.48-0.4l-0.07-0.01c-1.17-0.12-2.34-0.22-3.52-0.31l-0.02,0c-3.57-0.27-7.18-0.41-10.83-0.41
		c-1.22,0-2.43,0.01-3.63,0.05c-1.21,0.03-2.41,0.08-3.61,0.14c-1.2,0.06-2.39,0.14-3.59,0.23c-1.19,0.09-2.38,0.2-3.56,0.32
		c-1.18,0.12-2.36,0.26-3.54,0.4c-1.18,0.15-2.34,0.31-3.51,0.49h0c-1.17,0.18-2.33,0.37-3.48,0.58c-1.16,0.21-2.31,0.43-3.45,0.66
		c-1.15,0.23-2.29,0.48-3.42,0.74c-1.13,0.26-2.27,0.54-3.39,0.83c-1.13,0.29-2.25,0.59-3.36,0.91c-1.12,0.32-2.22,0.65-3.32,0.99h0
		c-1.1,0.34-2.2,0.7-3.29,1.07c-1.09,0.37-2.18,0.75-3.25,1.15c-1.08,0.4-2.15,0.8-3.22,1.22c-1.07,0.42-2.12,0.85-3.18,1.3v0
		c-1.05,0.44-2.1,0.9-3.14,1.37c-1.04,0.47-2.07,0.95-3.1,1.45c-1.03,0.5-2.05,1-3.06,1.52c-2.03,1.04-4.02,2.12-5.99,3.25
		c-0.98,0.57-1.96,1.14-2.93,1.73h0c-0.97,0.59-1.93,1.19-2.88,1.8h0c-4.76,3.05-9.33,6.39-13.68,9.98
		c-0.87,0.72-1.73,1.44-2.58,2.18c-0.85,0.74-1.69,1.49-2.53,2.24c-3.34,3.03-6.53,6.22-9.56,9.56c-0.76,0.83-1.5,1.68-2.24,2.53
		c-0.74,0.85-1.47,1.71-2.18,2.58h0c-3.59,4.35-6.92,8.91-9.97,13.68c-0.61,0.95-1.21,1.91-1.8,2.88v0
		c-0.59,0.97-1.17,1.94-1.73,2.93h0c-1.13,1.97-2.22,3.96-3.25,5.99c-0.52,1.01-1.03,2.03-1.52,3.06c-0.49,1.03-0.98,2.06-1.45,3.1
		c-0.47,1.04-0.93,2.09-1.37,3.14h0c-0.45,1.05-0.88,2.11-1.3,3.18c-0.42,1.07-0.83,2.14-1.22,3.22c-0.39,1.08-0.78,2.16-1.15,3.26
		c-0.37,1.09-0.73,2.19-1.07,3.29l0,0c-0.34,1.1-0.67,2.21-0.99,3.33c-0.32,1.11-0.62,2.23-0.91,3.36
		c-0.29,1.12-0.57,2.25-0.83,3.39c-0.26,1.13-0.51,2.28-0.74,3.42c-0.23,1.15-0.45,2.3-0.66,3.45c-0.21,1.16-0.4,2.32-0.58,3.48v0
		c-0.18,1.17-0.34,2.33-0.49,3.51c-0.15,1.18-0.28,2.35-0.4,3.54c-0.12,1.18-0.23,2.37-0.32,3.56c-0.09,1.19-0.17,2.39-0.23,3.59
		c-0.06,1.2-0.11,2.4-0.14,3.61c-0.03,1.21-0.05,2.42-0.05,3.63l0,0c0,1.22,0.01,2.43,0.05,3.63c0.03,1.21,0.08,2.41,0.14,3.61l0,0
		c0.06,1.2,0.14,2.4,0.23,3.59c0.09,1.19,0.2,2.38,0.32,3.56l0,0c0.12,1.18,0.25,2.36,0.4,3.54c0.15,1.18,0.31,2.34,0.49,3.51v0
		c0.18,1.16,0.37,2.32,0.58,3.48c0.21,1.15,0.43,2.31,0.66,3.45v0c0.23,1.15,0.48,2.28,0.74,3.42c0.26,1.14,0.54,2.27,0.83,3.39v0
		c0.29,1.13,0.59,2.24,0.91,3.36c0.32,1.11,0.65,2.22,0.99,3.33v0c0.34,1.1,0.7,2.2,1.07,3.29l0,0c0.37,1.09,0.75,2.18,1.15,3.26
		c0.4,1.08,0.8,2.15,1.22,3.22v0c0.84,2.13,1.73,4.24,2.67,6.32v0c0.94,2.08,1.93,4.13,2.97,6.16v0c1.55,3.03,3.22,6.01,4.98,8.91v0
		c0.59,0.97,1.19,1.93,1.8,2.88l0,0c3.67,5.72,7.73,11.15,12.16,16.26l0,0c0.74,0.85,1.49,1.69,2.24,2.53v0
		c3.79,4.17,7.83,8.11,12.08,11.8c0.85,0.74,1.71,1.47,2.58,2.18l0,0c4.35,3.59,8.91,6.92,13.68,9.97h0c1.9,1.22,3.84,2.4,5.81,3.53
		v0c1.97,1.13,3.96,2.22,5.99,3.25c1.01,0.52,2.03,1.03,3.06,1.52v0c1.02,0.49,2.06,0.98,3.1,1.45c1.04,0.47,2.09,0.93,3.14,1.38
		l0,0c1.05,0.44,2.11,0.88,3.18,1.3c1.07,0.42,2.14,0.83,3.22,1.22c1.08,0.39,2.16,0.78,3.25,1.15c1.09,0.37,2.19,0.72,3.29,1.07h0
		c1.1,0.34,2.21,0.67,3.32,0.99c1.11,0.32,2.23,0.62,3.36,0.91c1.12,0.29,2.26,0.57,3.39,0.83c1.14,0.26,2.28,0.51,3.42,0.75
		c1.15,0.23,2.3,0.45,3.45,0.66c1.16,0.21,2.32,0.4,3.48,0.58h0c1.17,0.18,2.33,0.34,3.51,0.49c1.18,0.15,2.35,0.28,3.54,0.4
		c1.18,0.12,2.37,0.23,3.56,0.32c1.19,0.09,2.39,0.17,3.59,0.23c1.2,0.06,2.41,0.11,3.61,0.14c1.2,0.03,2.42,0.05,3.63,0.05
		c1.22,0,2.43-0.01,3.63-0.05h0c1.21-0.03,2.41-0.08,3.61-0.14h0c1.2-0.06,2.39-0.14,3.59-0.23l0,0c1.19-0.09,2.38-0.2,3.56-0.32
		l0,0c1.18-0.12,2.36-0.26,3.54-0.4l0,0c1.18-0.15,2.34-0.31,3.51-0.49h0c1.17-0.18,2.33-0.37,3.48-0.58l0,0
		c1.16-0.21,2.31-0.43,3.45-0.66l0,0c1.15-0.24,2.29-0.48,3.42-0.75h0c1.14-0.26,2.27-0.54,3.39-0.83h0
		c1.12-0.29,2.24-0.59,3.36-0.91l0,0c1.12-0.31,2.22-0.65,3.33-0.99c1.1-0.34,2.2-0.7,3.29-1.07l0,0c1.09-0.37,2.18-0.75,3.25-1.15
		c1.08-0.4,2.15-0.8,3.22-1.22c1.07-0.42,2.13-0.85,3.18-1.3l0,0c1.05-0.45,2.1-0.9,3.14-1.38l0,0c2.08-0.94,4.13-1.93,6.16-2.97h0
		c4.05-2.07,7.98-4.34,11.79-6.78l0,0c0.95-0.61,1.9-1.23,2.83-1.86c4.68-3.16,9.17-6.6,13.43-10.29h0
		c0.85-0.74,1.69-1.48,2.53-2.24v0c0.83-0.76,1.66-1.52,2.47-2.3c0.81-0.78,1.62-1.56,2.42-2.36c0.8-0.8,1.58-1.6,2.36-2.42l0,0
		c1.55-1.63,3.07-3.3,4.55-5l0,0c0.74-0.85,1.47-1.71,2.19-2.58c3.59-4.35,6.92-8.92,9.97-13.68l0,0c2.44-3.81,4.71-7.74,6.78-11.79
		v0c1.04-2.02,2.03-4.08,2.97-6.16v0c0.94-2.08,1.83-4.19,2.67-6.32v0c0.42-1.07,0.83-2.14,1.22-3.22c0.39-1.08,0.78-2.16,1.15-3.26
		l0,0c0.37-1.09,0.73-2.19,1.07-3.29v0c0.34-1.1,0.67-2.21,0.99-3.33c0.32-1.11,0.62-2.23,0.91-3.36v0
		c0.29-1.13,0.57-2.26,0.83-3.39c0.26-1.14,0.51-2.27,0.75-3.42v0c0.23-1.15,0.45-2.3,0.66-3.45c0.21-1.16,0.4-2.32,0.58-3.48v0
		c0.18-1.17,0.34-2.33,0.49-3.51c0.15-1.17,0.28-2.35,0.4-3.54l0,0c0.12-1.18,0.23-2.37,0.32-3.56c0.09-1.19,0.17-2.39,0.23-3.59
		l0,0c0.06-1.2,0.11-2.41,0.14-3.61c0.03-1.21,0.05-2.42,0.05-3.63l0,0c0-1.19-0.01-2.38-0.05-3.56l0-0.1
		c-0.03-1.15-0.07-2.3-0.13-3.45l-0.01-0.19c-0.06-1.13-0.13-2.26-0.21-3.38l-0.01-0.22c-0.09-1.11-0.18-2.21-0.29-3.31l-0.03-0.28
		c-0.11-1.08-0.24-2.16-0.37-3.23l-0.04-0.33c-0.14-1.06-0.28-2.11-0.44-3.16l-0.06-0.38c-0.16-1.04-0.33-2.07-0.51-3.1l-0.07-0.39
		c-0.18-1.02-0.38-2.04-0.59-3.06l-0.09-0.43c-0.21-1-0.43-2-0.66-3l-0.1-0.43c-0.23-1-0.48-2-0.73-2.99l-0.1-0.39
		c-0.26-0.99-0.52-1.98-0.8-2.96l-0.12-0.42c-0.28-0.98-0.57-1.95-0.87-2.92l-0.13-0.41c-0.3-0.97-0.61-1.93-0.94-2.88l-0.15-0.44
		c-0.32-0.95-0.66-1.89-1-2.83l-0.15-0.42c-0.35-0.95-0.71-1.89-1.07-2.83l-0.15-0.38c-0.37-0.94-0.75-1.87-1.14-2.79l-0.17-0.41
		c-0.4-0.93-0.8-1.85-1.21-2.77l-0.16-0.35c-0.42-0.93-0.85-1.85-1.29-2.77l-0.16-0.32c-0.45-0.92-0.9-1.84-1.37-2.76l-0.15-0.29
		c-0.47-0.92-0.95-1.83-1.44-2.73l-0.17-0.3c-0.49-0.9-0.99-1.8-1.51-2.69l-0.14-0.24c-0.52-0.9-1.05-1.8-1.59-2.7l-0.13-0.22
		c-0.55-0.91-1.12-1.81-1.69-2.7l-0.06-0.1c-0.59-0.92-1.19-1.83-1.8-2.74l-0.07-0.1c-0.6-0.89-1.21-1.77-1.84-2.65l-0.04-0.06
		l-0.01-0.02l-0.01-0.01c-0.63-0.88-1.26-1.75-1.91-2.62l-0.09-0.12c-0.63-0.84-1.27-1.67-1.92-2.5l-0.17-0.22
		c-0.65-0.83-1.31-1.65-1.98-2.46l-0.13-0.16c-0.66-0.8-1.33-1.59-2.01-2.38l-0.2-0.23c-0.66-0.76-1.33-1.52-2.01-2.26l-0.26-0.29
		c-0.67-0.74-1.35-1.47-2.04-2.19l-0.27-0.29c-0.68-0.71-1.37-1.42-2.07-2.12l-0.32-0.32c-0.75-0.74-1.5-1.48-2.26-2.21l0,0
		l-0.02-0.02l-0.02-0.02l-0.01-0.01C3087.13,1803.88,3085.23,1802.18,3083.29,1800.52"/>
	<path id="XMLID_629_" class="st3" d="M3013.84,1800.34c-0.41,4.15,0.67,4.78,3.42,7.39c26.34,25.07,42.76,60.47,42.76,99.7
		c0,76-61.63,137.63-137.63,137.63c-76,0-137.64-61.63-137.64-137.63c0-76,61.63-137.64,137.64-137.64c10.49,0,20.7,1.17,30.52,3.4
		c4,0.91,5.73,1.31,9.14-0.93c-2.58-0.76-5.18-1.44-7.82-2.06l-0.08-0.02c-1.1-0.26-2.21-0.5-3.32-0.72l-0.12-0.02
		c-1.11-0.23-2.22-0.44-3.34-0.64l-0.1-0.02c-1.12-0.2-2.24-0.39-3.37-0.56l-0.12-0.02c-1.14-0.17-2.28-0.33-3.43-0.48l-0.05-0.01
		c-1.16-0.15-2.31-0.28-3.48-0.4l-0.07-0.01c-1.17-0.12-2.34-0.22-3.52-0.31l-0.02,0c-3.57-0.27-7.18-0.41-10.83-0.41
		c-1.22,0-2.43,0.01-3.63,0.05c-1.21,0.03-2.41,0.08-3.61,0.14c-1.2,0.06-2.39,0.14-3.59,0.23c-1.19,0.09-2.38,0.2-3.56,0.32
		c-1.18,0.12-2.36,0.26-3.54,0.4c-1.18,0.15-2.34,0.31-3.51,0.49h0c-1.17,0.18-2.33,0.37-3.48,0.58c-1.16,0.21-2.31,0.43-3.45,0.66
		c-1.15,0.23-2.29,0.48-3.42,0.74c-1.13,0.26-2.27,0.54-3.39,0.83c-1.13,0.29-2.25,0.59-3.36,0.91c-1.12,0.32-2.22,0.65-3.32,0.99h0
		c-1.1,0.34-2.2,0.7-3.29,1.07c-1.09,0.37-2.18,0.75-3.25,1.15c-1.08,0.4-2.15,0.8-3.22,1.22c-1.07,0.42-2.12,0.85-3.18,1.3v0
		c-1.05,0.44-2.1,0.9-3.14,1.37c-1.04,0.47-2.07,0.95-3.1,1.45c-1.03,0.5-2.05,1-3.06,1.52c-2.03,1.04-4.02,2.12-5.99,3.25
		c-0.98,0.57-1.96,1.14-2.93,1.73h0c-0.97,0.59-1.93,1.19-2.88,1.8h0c-4.76,3.05-9.33,6.39-13.68,9.98
		c-0.87,0.72-1.73,1.44-2.58,2.18c-0.85,0.74-1.69,1.49-2.53,2.24c-3.34,3.03-6.53,6.22-9.56,9.56c-0.76,0.83-1.5,1.68-2.24,2.53
		c-0.74,0.85-1.47,1.71-2.18,2.58h0c-3.59,4.35-6.92,8.91-9.97,13.68c-0.61,0.95-1.21,1.91-1.8,2.88v0
		c-0.59,0.97-1.17,1.94-1.73,2.93h0c-1.13,1.97-2.22,3.96-3.25,5.99c-0.52,1.01-1.03,2.03-1.52,3.06c-0.49,1.03-0.98,2.06-1.45,3.1
		c-0.47,1.04-0.93,2.09-1.37,3.14h0c-0.45,1.05-0.88,2.11-1.3,3.18c-0.42,1.07-0.83,2.14-1.22,3.22c-0.39,1.08-0.78,2.16-1.15,3.26
		c-0.37,1.09-0.73,2.19-1.07,3.29l0,0c-0.34,1.1-0.67,2.21-0.99,3.33c-0.32,1.11-0.62,2.23-0.91,3.36
		c-0.29,1.12-0.57,2.25-0.83,3.39c-0.26,1.13-0.51,2.28-0.74,3.42c-0.23,1.15-0.45,2.3-0.66,3.45c-0.21,1.16-0.4,2.32-0.58,3.48v0
		c-0.18,1.17-0.34,2.33-0.49,3.51c-0.15,1.18-0.28,2.35-0.4,3.54c-0.12,1.18-0.23,2.37-0.32,3.56c-0.09,1.19-0.17,2.39-0.23,3.59
		c-0.06,1.2-0.11,2.4-0.14,3.61c-0.03,1.21-0.05,2.42-0.05,3.63l0,0c0,1.22,0.01,2.43,0.05,3.63c0.03,1.21,0.08,2.41,0.14,3.61l0,0
		c0.06,1.2,0.14,2.4,0.23,3.59c0.09,1.19,0.2,2.38,0.32,3.56l0,0c0.12,1.18,0.25,2.36,0.4,3.54c0.15,1.18,0.31,2.34,0.49,3.51v0
		c0.18,1.16,0.37,2.32,0.58,3.48c0.21,1.15,0.43,2.31,0.66,3.45v0c0.23,1.15,0.48,2.28,0.74,3.42c0.26,1.14,0.54,2.27,0.83,3.39v0
		c0.29,1.13,0.59,2.24,0.91,3.36c0.32,1.11,0.65,2.22,0.99,3.33v0c0.34,1.1,0.7,2.2,1.07,3.29l0,0c0.37,1.09,0.75,2.18,1.15,3.26
		c0.4,1.08,0.8,2.15,1.22,3.22v0c0.84,2.13,1.73,4.24,2.67,6.32v0c0.94,2.08,1.93,4.13,2.97,6.16v0c1.55,3.03,3.22,6.01,4.98,8.91v0
		c0.59,0.97,1.19,1.93,1.8,2.88l0,0c3.67,5.72,7.73,11.15,12.16,16.26l0,0c0.74,0.85,1.49,1.69,2.24,2.53v0
		c3.79,4.17,7.83,8.11,12.08,11.8c0.85,0.74,1.71,1.47,2.58,2.18l0,0c4.35,3.59,8.91,6.92,13.68,9.97h0c1.9,1.22,3.84,2.4,5.81,3.53
		v0c1.97,1.13,3.96,2.22,5.99,3.25c1.01,0.52,2.03,1.03,3.06,1.52v0c1.02,0.49,2.06,0.98,3.1,1.45c1.04,0.47,2.09,0.93,3.14,1.38
		l0,0c1.05,0.45,2.11,0.88,3.18,1.3c1.07,0.42,2.14,0.83,3.22,1.22c1.08,0.39,2.16,0.78,3.25,1.15c1.09,0.37,2.19,0.72,3.29,1.07h0
		c1.1,0.34,2.21,0.67,3.32,0.99c1.11,0.32,2.23,0.62,3.36,0.91c1.12,0.29,2.26,0.57,3.39,0.83c1.14,0.26,2.28,0.51,3.42,0.75
		c1.15,0.23,2.3,0.45,3.45,0.66c1.16,0.21,2.32,0.4,3.48,0.58h0c1.17,0.18,2.33,0.34,3.51,0.49c1.18,0.15,2.35,0.28,3.54,0.4
		c1.18,0.12,2.37,0.23,3.56,0.32c1.19,0.09,2.39,0.17,3.59,0.23c1.2,0.06,2.41,0.11,3.61,0.14c1.21,0.03,2.42,0.05,3.63,0.05
		s2.43-0.01,3.63-0.05h0c1.21-0.03,2.41-0.08,3.61-0.14h0c1.2-0.06,2.39-0.14,3.59-0.23l0,0c1.19-0.09,2.38-0.2,3.56-0.32l0,0
		c1.18-0.12,2.36-0.26,3.54-0.4l0,0c1.18-0.15,2.34-0.31,3.51-0.49h0c1.17-0.18,2.33-0.37,3.48-0.58l0,0
		c1.16-0.21,2.31-0.43,3.45-0.66l0,0c1.15-0.24,2.29-0.48,3.42-0.75h0c1.14-0.26,2.27-0.54,3.39-0.83h0
		c1.13-0.29,2.24-0.59,3.36-0.91l0,0c1.12-0.31,2.22-0.65,3.33-0.99c1.1-0.34,2.2-0.7,3.29-1.07l0,0c1.09-0.37,2.18-0.75,3.25-1.15
		c1.08-0.4,2.15-0.8,3.22-1.22c1.07-0.42,2.13-0.85,3.18-1.3l0,0c1.05-0.45,2.1-0.9,3.14-1.38l0,0c2.08-0.94,4.13-1.93,6.16-2.97h0
		c4.05-2.07,7.98-4.34,11.79-6.78l0,0c0.95-0.61,1.9-1.23,2.83-1.86c4.68-3.16,9.17-6.6,13.43-10.29h0
		c0.85-0.74,1.69-1.48,2.53-2.24v0c0.83-0.76,1.66-1.52,2.47-2.3c0.81-0.78,1.62-1.56,2.42-2.36c0.8-0.8,1.58-1.6,2.36-2.42l0,0
		c1.55-1.63,3.07-3.3,4.55-5l0,0c0.74-0.85,1.47-1.71,2.18-2.58c3.59-4.35,6.92-8.92,9.97-13.68l0,0c2.44-3.81,4.71-7.74,6.78-11.79
		v0c1.04-2.02,2.03-4.08,2.97-6.16v0c0.94-2.08,1.83-4.19,2.67-6.32v0c0.42-1.07,0.83-2.14,1.22-3.22c0.39-1.08,0.78-2.16,1.15-3.26
		l0,0c0.37-1.09,0.73-2.19,1.07-3.29v0c0.34-1.1,0.67-2.21,0.99-3.33c0.32-1.11,0.62-2.23,0.91-3.36v0
		c0.29-1.13,0.57-2.26,0.83-3.39c0.26-1.14,0.51-2.27,0.75-3.42v0c0.23-1.15,0.45-2.3,0.66-3.45c0.21-1.16,0.4-2.32,0.58-3.48v0
		c0.18-1.17,0.34-2.33,0.49-3.51c0.15-1.17,0.28-2.35,0.4-3.54l0,0c0.12-1.18,0.23-2.37,0.32-3.56c0.09-1.19,0.17-2.39,0.23-3.59
		l0,0c0.06-1.2,0.11-2.41,0.14-3.61c0.03-1.21,0.05-2.42,0.05-3.63l0,0c0-1.19-0.01-2.38-0.05-3.56l0-0.1
		c-0.03-1.15-0.07-2.3-0.13-3.45l-0.01-0.19c-0.06-1.13-0.13-2.26-0.21-3.38l-0.01-0.22c-0.09-1.11-0.18-2.21-0.29-3.31l-0.03-0.28
		c-0.11-1.08-0.24-2.16-0.37-3.23l-0.04-0.33c-0.14-1.06-0.28-2.11-0.44-3.16l-0.06-0.38c-0.16-1.04-0.33-2.07-0.51-3.1l-0.07-0.39
		c-0.18-1.02-0.38-2.04-0.59-3.06l-0.09-0.43c-0.21-1-0.43-2-0.66-3l-0.1-0.43c-0.23-1-0.48-2-0.73-2.99l-0.1-0.39
		c-0.26-0.99-0.52-1.98-0.8-2.96l-0.12-0.42c-0.28-0.98-0.57-1.95-0.87-2.92l-0.13-0.41c-0.3-0.97-0.61-1.93-0.94-2.88l-0.15-0.44
		c-0.32-0.95-0.66-1.89-1-2.83l-0.15-0.42c-0.35-0.95-0.71-1.89-1.07-2.83l-0.15-0.38c-0.37-0.94-0.75-1.87-1.14-2.79l-0.17-0.41
		c-0.4-0.93-0.8-1.85-1.21-2.77l-0.16-0.35c-0.42-0.93-0.85-1.85-1.29-2.77l-0.16-0.32c-0.45-0.92-0.9-1.84-1.37-2.76l-0.15-0.29
		c-0.47-0.92-0.95-1.83-1.44-2.73l-0.17-0.3c-0.49-0.9-0.99-1.8-1.51-2.69l-0.14-0.24c-0.52-0.9-1.05-1.8-1.59-2.7l-0.13-0.22
		c-0.55-0.91-1.12-1.81-1.69-2.7l-0.06-0.1c-0.59-0.92-1.19-1.83-1.8-2.74l-0.07-0.1c-0.6-0.89-1.21-1.77-1.84-2.65l-0.04-0.06
		l-0.01-0.02l-0.01-0.01c-0.63-0.88-1.26-1.75-1.91-2.62l-0.09-0.12c-0.63-0.84-1.27-1.67-1.92-2.5l-0.17-0.22
		c-0.65-0.83-1.31-1.65-1.98-2.46l-0.13-0.16c-0.66-0.8-1.33-1.59-2.01-2.38l-0.2-0.23c-0.66-0.76-1.33-1.52-2.01-2.26l-0.26-0.29
		c-0.67-0.74-1.35-1.47-2.04-2.19l-0.27-0.29c-0.68-0.71-1.37-1.42-2.07-2.12l-0.32-0.32c-0.75-0.74-1.5-1.48-2.26-2.21l0,0
		l-0.02-0.02l-0.02-0.02l-0.01-0.01C3017.67,1803.71,3015.78,1802,3013.84,1800.34"/>
</g>
<g id="M_CIRCLES" class="st0">
	<circle id="XMLID_70_" class="st2" cx="-1638.59" cy="-3002.65" r="125.98"/>
	<circle id="XMLID_81_" class="st2" cx="-1512.61" cy="-3002.65" r="125.98"/>
	<circle id="XMLID_82_" class="st2" cx="-1386.63" cy="-3002.65" r="125.98"/>
	<circle id="XMLID_89_" class="st2" cx="-2016.52" cy="-3002.65" r="125.98"/>
	<circle id="XMLID_86_" class="st2" cx="-1890.55" cy="-3002.65" r="125.98"/>
	<circle id="XMLID_85_" class="st2" cx="-1764.57" cy="-3002.65" r="125.98"/>
	<circle id="XMLID_83_" class="st2" cx="-1260.65" cy="-3002.65" r="125.98"/>
	<circle id="XMLID_247_" class="st2" cx="-1638.59" cy="-3002.65" r="125.98"/>
	<circle id="XMLID_109_" class="st2" cx="-1638.59" cy="-3128.63" r="125.98"/>
	<circle id="XMLID_107_" class="st2" cx="-1638.59" cy="-3254.61" r="125.98"/>
	<circle id="XMLID_95_" class="st2" cx="-1638.59" cy="-2624.72" r="125.98"/>
	<circle id="XMLID_94_" class="st2" cx="-1638.59" cy="-2750.69" r="125.98"/>
	<circle id="XMLID_90_" class="st2" cx="-1638.59" cy="-2876.67" r="125.98"/>
	<circle id="XMLID_68_" class="st2" cx="-1638.59" cy="-3380.58" r="125.98"/>
</g>
<g id="S_CIRCLES" class="st0">
	<circle id="XMLID_720_" class="st4" cx="-1638.59" cy="-2591.03" r="14.96"/>
	<circle id="XMLID_249_" class="st4" cx="-1890.55" cy="-3002.65" r="62.99"/>
	<circle id="XMLID_12_" class="st4" cx="-1953.53" cy="-3002.65" r="62.99"/>
	<circle id="XMLID_73_" class="st4" cx="-1827.56" cy="-3002.65" r="62.99"/>
	<circle id="XMLID_74_" class="st4" cx="-1764.57" cy="-3002.65" r="62.99"/>
	<circle id="XMLID_130_" class="st4" cx="-1701.58" cy="-3002.65" r="62.99"/>
	<circle id="XMLID_138_" class="st4" cx="-1638.59" cy="-3002.65" r="62.99"/>
	<circle id="XMLID_139_" class="st4" cx="-1575.6" cy="-3002.65" r="62.99"/>
	<circle id="XMLID_150_" class="st4" cx="-1512.61" cy="-3002.65" r="62.99"/>
	<circle id="XMLID_151_" class="st4" cx="-1449.62" cy="-3002.65" r="62.99"/>
	<circle id="XMLID_152_" class="st4" cx="-1386.63" cy="-3002.65" r="62.99"/>
	<circle id="XMLID_10_" class="st4" cx="-1323.64" cy="-3002.65" r="62.99"/>
	<circle id="XMLID_11_" class="st4" cx="-1260.65" cy="-3002.65" r="62.99"/>
	<circle id="XMLID_23_" class="st4" cx="-1643.76" cy="-2719.2" r="62.99"/>
	<circle id="XMLID_22_" class="st4" cx="-1643.76" cy="-2656.21" r="62.99"/>
	<circle id="XMLID_21_" class="st4" cx="-1643.76" cy="-2782.19" r="62.99"/>
	<circle id="XMLID_20_" class="st4" cx="-1643.76" cy="-2845.18" r="62.99"/>
	<circle id="XMLID_19_" class="st4" cx="-1643.76" cy="-2908.17" r="62.99"/>
	<circle id="XMLID_18_" class="st4" cx="-1643.76" cy="-2971.16" r="62.99"/>
	<circle id="XMLID_17_" class="st4" cx="-1643.76" cy="-3034.15" r="62.99"/>
	<circle id="XMLID_16_" class="st4" cx="-1643.76" cy="-3097.13" r="62.99"/>
	<circle id="XMLID_24_" class="st4" cx="-1706.74" cy="-3097.13" r="62.99"/>
	<circle id="XMLID_25_" class="st4" cx="-1769.73" cy="-3097.13" r="62.99"/>
	<circle id="XMLID_26_" class="st4" cx="-1832.72" cy="-3097.13" r="62.99"/>
	<circle id="XMLID_44_" class="st4" cx="-1895.71" cy="-3097.13" r="62.99"/>
	<circle id="XMLID_29_" class="st4" cx="-1454.79" cy="-3097.13" r="62.99"/>
	<circle id="XMLID_45_" class="st4" cx="-1391.8" cy="-3097.13" r="62.99"/>
	<circle id="XMLID_28_" class="st4" cx="-1517.78" cy="-3097.13" r="62.99"/>
	<circle id="XMLID_27_" class="st4" cx="-1580.77" cy="-3097.13" r="62.99"/>
	<circle id="XMLID_15_" class="st4" cx="-1643.76" cy="-3160.12" r="62.99"/>
	<circle id="XMLID_41_" class="st4" cx="-1706.74" cy="-2908.17" r="62.99"/>
	<circle id="XMLID_40_" class="st4" cx="-1769.73" cy="-2908.17" r="62.99"/>
	<circle id="XMLID_39_" class="st4" cx="-1832.72" cy="-2908.17" r="62.99"/>
	<circle id="XMLID_42_" class="st4" cx="-1895.71" cy="-2908.17" r="62.99"/>
	<circle id="XMLID_38_" class="st4" cx="-1454.79" cy="-2908.17" r="62.99"/>
	<circle id="XMLID_43_" class="st4" cx="-1391.8" cy="-2908.17" r="62.99"/>
	<circle id="XMLID_37_" class="st4" cx="-1517.78" cy="-2908.17" r="62.99"/>
	<circle id="XMLID_36_" class="st4" cx="-1580.77" cy="-2908.17" r="62.99"/>
	<circle id="XMLID_35_" class="st4" cx="-1643.76" cy="-2971.16" r="62.99"/>
	<circle id="XMLID_14_" class="st4" cx="-1643.76" cy="-3223.11" r="62.99"/>
	<circle id="XMLID_13_" class="st4" cx="-1643.76" cy="-3286.1" r="62.99"/>
	<circle id="XMLID_9_" class="st4" cx="-1643.76" cy="-3349.09" r="62.99"/>
</g>
<g id="TEXT">
	<g>
		<g>
			<path class="st5" d="M786.93,428.09l-0.01-0.26c-0.08-3.13-0.2-6.27-0.35-9.33l-0.03-0.51c-0.15-2.94-0.34-5.92-0.58-9.12
				l-0.04-0.61c-0.22-2.82-0.48-5.75-0.79-8.93l-0.07-0.77c-0.3-2.92-0.64-5.83-1-8.73l-0.11-0.88c-0.37-2.88-0.77-5.75-1.19-8.53
				l-0.16-1.03c-0.43-2.81-0.9-5.6-1.39-8.38l-0.18-1.05c-0.5-2.77-1.03-5.51-1.59-8.25l-0.23-1.16c-0.56-2.72-1.15-5.42-1.77-8.12
				l-0.26-1.16c-0.63-2.7-1.29-5.4-1.97-8.08l-0.27-1.05c-0.69-2.68-1.41-5.35-2.16-8l-0.33-1.14c-0.75-2.64-1.54-5.28-2.35-7.88
				l-0.34-1.1c-0.89-2.84-1.72-5.38-2.53-7.78l-0.4-1.19c-0.87-2.56-1.77-5.11-2.7-7.66l-0.41-1.12c-0.94-2.56-1.91-5.11-2.91-7.65
				l-0.41-1.02c-1.03-2.6-2.07-5.14-3.09-7.55l-0.46-1.1c-1.07-2.5-2.16-5-3.28-7.49l-0.42-0.93c-1.13-2.51-2.3-5-3.49-7.49
				l-0.42-0.86c-1.21-2.5-2.44-4.99-3.71-7.45l-0.4-0.78c-1.27-2.47-2.56-4.93-3.9-7.38l-0.45-0.81c-1.33-2.44-2.69-4.87-4.07-7.29
				l-0.38-0.65c-1.41-2.45-2.85-4.87-4.31-7.29l-0.36-0.59c-1.5-2.46-3.02-4.89-4.56-7.3l-0.17-0.27c-1.6-2.48-3.22-4.94-4.87-7.39
				l-0.19-0.28c-1.79-2.65-3.42-4.99-4.96-7.14l-0.1-0.14c-0.03-0.05-0.07-0.1-0.11-0.15c-1.69-2.37-3.39-4.71-5.13-7.04l-0.25-0.33
				c-1.7-2.27-3.43-4.52-5.17-6.74l-0.47-0.6c-1.77-2.23-3.55-4.45-5.36-6.65l-0.35-0.42c-1.79-2.17-3.61-4.31-5.44-6.43l-0.55-0.64
				c-1.79-2.05-3.6-4.1-5.43-6.12l-0.7-0.77c-1.82-1.99-3.65-3.97-5.52-5.92l-0.74-0.78c-1.84-1.93-3.7-3.83-5.58-5.72l-0.87-0.87
				c-2.02-2.01-4.05-4.01-6.15-5.99c-0.03-0.03-0.08-0.08-0.11-0.11c-4.81-4.58-9.98-9.23-15.36-13.84c-0.42-0.36-1-0.45-1.51-0.25
				c-0.51,0.2-0.86,0.68-0.91,1.22c-1.08,11.03,1.78,13.71,8.03,19.59l1.62,1.53c35.85,34.13,64.05,74.32,83.82,119.46
				c20.47,46.73,30.84,96.49,30.84,147.91c0,98.58-38.4,191.26-108.12,260.99c-69.72,69.72-162.41,108.12-260.99,108.12
				c-98.58,0-191.27-38.4-260.99-108.12S37.25,536.3,37.25,437.72c0-98.58,38.4-191.26,108.12-260.99S307.78,68.61,406.36,68.61
				c27.62,0,55.16,3.06,81.91,9.12c10.66,2.42,16,3.63,25.68-2.73c0.48-0.31,0.73-0.88,0.65-1.45c-0.08-0.57-0.49-1.03-1.04-1.19
				c-7.19-2.1-14.3-3.97-21.12-5.55l-0.24-0.06c-2.86-0.66-5.79-1.3-8.98-1.96l-0.32-0.06c-2.68-0.55-5.63-1.12-9.02-1.73
				l-0.28-0.05c-3.02-0.54-6.09-1.05-9.12-1.51l-0.31-0.05c-2.94-0.45-6.05-0.89-9.2-1.29c-0.02,0-0.17-0.03-0.19-0.03
				c-3.2-0.4-6.36-0.76-9.38-1.06l-0.21-0.02c-2.77-0.28-5.79-0.56-9.56-0.85c-9.63-0.74-19.48-1.11-29.26-1.11
				c-3.47,0-6.69,0.04-9.82,0.12c-3.34,0.09-6.62,0.21-9.77,0.37c-3.15,0.16-6.41,0.36-9.69,0.61c-3.06,0.23-6.3,0.52-9.64,0.86
				c-3.14,0.32-6.36,0.69-9.56,1.09c-3.14,0.4-6.33,0.85-9.49,1.33c-3.49,0.54-6.57,1.05-9.41,1.56c-3.17,0.57-6.31,1.17-9.33,1.79
				c-3.13,0.64-6.24,1.32-9.25,2.01c-3,0.69-6.08,1.44-9.16,2.24c-3.07,0.79-6.13,1.62-9.07,2.46c-2.89,0.82-5.81,1.69-8.91,2.65
				c-0.03,0.01-0.06,0.02-0.08,0.02c-2.77,0.86-5.67,1.8-8.89,2.89c-2.99,1.02-5.95,2.06-8.79,3.1c-2.81,1.03-5.66,2.11-8.7,3.31
				c-3.04,1.21-5.85,2.35-8.59,3.51c-0.03,0.01-0.06,0.03-0.09,0.04c-2.79,1.18-5.62,2.41-8.4,3.67c-2.87,1.3-5.69,2.62-8.37,3.91
				c-2.85,1.38-5.63,2.76-8.26,4.1c-5.31,2.72-10.76,5.68-16.18,8.8c-2.55,1.47-5.19,3.03-7.85,4.64c-0.02,0.01-0.04,0.02-0.06,0.04
				c-2.67,1.62-5.26,3.24-7.72,4.82c-0.02,0.01-0.04,0.03-0.06,0.04c-12.77,8.19-25.21,17.27-36.97,26.96
				c-2.52,2.09-4.8,4.02-6.98,5.9c-2.24,1.94-4.54,3.98-6.84,6.06c-8.96,8.14-17.65,16.83-25.83,25.83
				c-1.98,2.19-4.02,4.49-6.06,6.84c-1.84,2.12-3.75,4.38-5.84,6.91c-0.02,0.02-0.04,0.05-0.06,0.07
				c-9.69,11.74-18.76,24.17-26.96,36.97c-1.67,2.61-3.31,5.23-4.86,7.78c-0.01,0.02-0.03,0.04-0.04,0.06
				c-1.63,2.68-3.19,5.32-4.64,7.85c-3.07,5.34-6.03,10.79-8.79,16.18c-1.44,2.8-2.82,5.58-4.11,8.27c-1.3,2.71-2.62,5.52-3.91,8.38
				c-1.26,2.8-2.5,5.62-3.67,8.39c-0.02,0.03-0.03,0.07-0.05,0.1c-1.29,3.06-2.44,5.87-3.51,8.59c-1.13,2.88-2.24,5.8-3.31,8.7
				c-1.07,2.92-2.11,5.88-3.1,8.8c-1.03,3.07-2.01,6.06-2.89,8.89c-0.95,3.08-1.85,6.1-2.67,8.99c-0.81,2.85-1.62,5.82-2.46,9.08
				c-0.82,3.21-1.56,6.21-2.23,9.16c-0.72,3.12-1.4,6.23-2.01,9.25c-0.62,3.02-1.22,6.16-1.79,9.33c-0.54,3.03-1.07,6.2-1.56,9.42
				c0,0.01,0,0.03-0.01,0.04c-0.45,2.97-0.88,6.05-1.32,9.44c-0.39,3.06-0.75,6.27-1.09,9.56c-0.32,3.15-0.61,6.39-0.86,9.63
				c-0.26,3.35-0.46,6.62-0.61,9.7c-0.16,3.21-0.29,6.49-0.38,9.76c-0.08,3.11-0.12,6.33-0.12,9.83c0,3.5,0.04,6.71,0.12,9.83
				c0.09,3.27,0.21,6.56,0.37,9.76c0.15,3.1,0.35,6.28,0.61,9.7c0.24,3.22,0.53,6.46,0.86,9.63c0.33,3.29,0.7,6.51,1.09,9.56
				c0.44,3.36,0.87,6.45,1.32,9.44c0,0.02,0,0.03,0.01,0.05c0.51,3.35,1.02,6.43,1.56,9.41c0.57,3.19,1.17,6.32,1.78,9.28
				c0,0.02,0.01,0.03,0.01,0.05c0.61,2.97,1.28,6.08,2.01,9.24c0.67,2.93,1.4,5.93,2.24,9.18c0.85,3.28,1.65,6.25,2.46,9.07
				c0.82,2.88,1.72,5.91,2.67,8.99c0.88,2.81,1.82,5.72,2.89,8.89c0.99,2.91,2.03,5.87,3.1,8.8c1.07,2.92,2.19,5.85,3.31,8.69
				c2.2,5.58,4.61,11.29,7.19,16.99c0.01,0.03,0.02,0.06,0.04,0.09c2.5,5.53,5.18,11.1,7.98,16.56c0.01,0.03,0.03,0.06,0.04,0.09
				c4.15,8.11,8.67,16.18,13.42,24.01c0.01,0.03,0.03,0.05,0.04,0.08c1.57,2.59,3.21,5.21,4.86,7.78
				c9.87,15.39,20.92,30.17,32.86,43.95c1.96,2.26,3.97,4.53,5.98,6.74c0.03,0.03,0.05,0.06,0.08,0.09
				c10.22,11.24,21.21,21.97,32.66,31.88c2.24,1.94,4.59,3.93,6.98,5.9c11.73,9.68,24.17,18.75,36.97,26.96
				c0.02,0.01,0.04,0.03,0.06,0.04c4.96,3.19,10.18,6.36,15.52,9.43c0.04,0.03,0.08,0.05,0.12,0.08c5.5,3.15,10.94,6.11,16.18,8.78
				c2.7,1.39,5.44,2.75,8.14,4.05c0.04,0.02,0.08,0.05,0.12,0.07c2.73,1.32,5.55,2.63,8.37,3.91c2.46,1.12,5.08,2.27,8.49,3.72
				c3.02,1.28,5.83,2.43,8.59,3.51c2.64,1.04,5.48,2.12,8.7,3.31c2.98,1.08,5.93,2.13,8.79,3.1c2.95,1,5.94,1.97,8.89,2.89
				c0.03,0.01,0.06,0.02,0.08,0.02c3.16,0.98,6.08,1.84,8.91,2.64c3.05,0.87,6.1,1.7,9.08,2.47c3.16,0.81,6.24,1.56,9.16,2.23
				c2.94,0.68,6.05,1.36,9.25,2.02c2.83,0.58,5.89,1.17,9.34,1.79c3.14,0.56,6.31,1.08,9.41,1.56c2.99,0.46,6.09,0.89,9.49,1.33
				c3.49,0.43,6.62,0.79,9.56,1.09c3.29,0.33,6.54,0.62,9.63,0.86c3.45,0.26,6.62,0.46,9.69,0.61c3.2,0.16,6.49,0.29,9.77,0.37
				c3.15,0.08,6.46,0.12,9.82,0.12c3.36,0,6.66-0.04,9.82-0.12c3.29-0.09,6.58-0.21,9.76-0.37c3.07-0.15,6.24-0.35,9.7-0.61
				c3.08-0.23,6.32-0.52,9.63-0.86c2.93-0.3,6.05-0.65,9.56-1.09c3.39-0.44,6.48-0.87,9.45-1.33c0.01,0,0.03,0,0.04-0.01
				c3.15-0.48,6.31-1.01,9.41-1.56c3.45-0.62,6.5-1.21,9.33-1.79c3.57-0.74,6.51-1.38,9.25-2.02c2.94-0.68,5.94-1.41,9.17-2.23
				c2.96-0.76,6.01-1.59,9.07-2.46c2.81-0.79,5.75-1.67,8.99-2.67c2.93-0.91,5.92-1.88,8.89-2.89c2.84-0.96,5.8-2.01,8.8-3.1
				c3.19-1.18,6.04-2.26,8.69-3.3c2.75-1.08,5.56-2.23,8.6-3.51c3.4-1.45,6.02-2.6,8.48-3.72c5.57-2.52,11.17-5.22,16.65-8.02
				c10.87-5.57,21.6-11.74,31.88-18.33c2.46-1.57,5.04-3.27,7.66-5.04c12.62-8.52,24.8-17.87,36.23-27.77
				c0.02-0.02,0.04-0.03,0.06-0.05c2.23-1.94,4.53-3.97,6.83-6.06c0.03-0.03,0.06-0.06,0.09-0.09c2.09-1.9,4.25-3.91,6.59-6.13
				c2.21-2.11,4.41-4.26,6.54-6.39c2.37-2.38,4.46-4.52,6.38-6.53c4.2-4.4,8.33-8.95,12.28-13.52c2.01-2.31,3.99-4.66,5.91-6.97
				c9.69-11.75,18.76-24.19,26.96-36.97c6.59-10.28,12.76-21,18.33-31.87c0.02-0.03,0.03-0.06,0.04-0.09
				c2.82-5.52,5.5-11.09,7.97-16.56c0.01-0.03,0.02-0.06,0.04-0.09c2.54-5.62,4.96-11.34,7.19-16.99c1.11-2.83,2.23-5.75,3.31-8.69
				c1.05-2.87,2.09-5.83,3.1-8.8c1.02-3.01,1.99-6,2.89-8.89c0.95-3.05,1.84-6.08,2.67-8.99c0.85-2.99,1.67-6.04,2.45-9.07
				c0.75-2.88,1.48-5.88,2.24-9.17c0.72-3.14,1.4-6.25,2.01-9.25c0-0.02,0.01-0.03,0.01-0.05c0.61-2.98,1.21-6.1,1.78-9.28
				c0.57-3.22,1.09-6.38,1.55-9.41c0-0.01,0-0.03,0.01-0.04c0.45-2.93,0.88-6.02,1.33-9.45c0.39-3.07,0.75-6.19,1.09-9.56
				c0.34-3.4,0.62-6.55,0.85-9.63c0.25-3.25,0.45-6.52,0.61-9.7c0.16-3.13,0.29-6.41,0.37-9.76c0.08-3.18,0.12-6.48,0.12-9.82
				C787.05,434.44,787.01,431.2,786.93,428.09z"/>
			<path class="st5" d="M702.16,468.6c0.01-0.22,0.01-0.43-0.02-0.65c-0.01-0.12-0.02-0.23-0.04-0.34c-0.04-0.2-0.09-0.4-0.16-0.6
				c-0.04-0.11-0.07-0.23-0.12-0.34c-0.02-0.04-0.02-0.08-0.04-0.12c-0.08-0.18-0.19-0.33-0.29-0.49c-0.05-0.08-0.08-0.16-0.14-0.23
				c-0.19-0.27-0.41-0.51-0.65-0.72c-0.01-0.01-0.01-0.01-0.02-0.02L498.15,286.39L656.33,38.37c1.18-1.84,0.82-4.27-0.83-5.7
				c-1.65-1.43-4.11-1.44-5.76-0.01L429.75,221.98l-21.38-75.86c-0.36-1.26-1.26-2.3-2.46-2.84c-1.2-0.53-2.58-0.5-3.75,0.09
				l-44.85,22.35c0,0-0.01,0-0.01,0l-0.06,0.03c-0.01,0.01-0.02,0.01-0.03,0.02c-0.06,0.03-0.12,0.08-0.18,0.11
				c-0.04,0.03-0.09,0.05-0.13,0.08c-0.12,0.07-0.25,0.13-0.36,0.22c-0.01,0.01-0.02,0.02-0.02,0.02c-0.04,0.03-0.08,0.07-0.12,0.11
				c-0.08,0.07-0.15,0.14-0.22,0.21c-0.02,0.02-0.04,0.04-0.06,0.06c-0.08,0.08-0.17,0.15-0.24,0.23c-0.06,0.07-0.1,0.14-0.15,0.21
				c-0.07,0.08-0.13,0.17-0.18,0.26c-0.05,0.08-0.12,0.15-0.16,0.23c-0.05,0.09-0.09,0.2-0.13,0.29c-0.01,0.03-0.02,0.05-0.04,0.08
				c-0.03,0.06-0.07,0.11-0.1,0.18l-16.75,42.17l-49.02,2.96c-1.62,0.1-3.05,1.08-3.73,2.55c-0.13,0.28-10.11,21.82-21.73,47.25
				l-56.71,3.65c-1.72,0.11-3.21,1.21-3.83,2.81c-0.65,1.69-8.1,20.97-16.11,41.75L141,314.35c-1.7,0.12-3.19,1.21-3.81,2.79
				c-9.55,24.43-40,102.55-42.76,111.68c0,0.01-0.01,0.02-0.01,0.03c-0.03,0.1-0.06,0.2-0.08,0.28c-0.01,0.05-0.03,0.1-0.04,0.16
				c-0.03,0.11-0.05,0.19-0.06,0.26c0,0.02,0,0.03,0,0.05c-0.03,0.18-0.04,0.37-0.04,0.56c0,0.03-0.01,0.07-0.01,0.1
				c0,0.01,0,0.01,0,0.02c0,0.22,0.02,0.44,0.05,0.66c0.01,0.05,0.01,0.11,0.02,0.16c0,0.01,0,0.01,0,0.02
				c0.04,0.2,0.09,0.39,0.15,0.58c0.02,0.08,0.05,0.15,0.07,0.23c0,0.01,0.01,0.02,0.01,0.02c0.06,0.15,0.13,0.3,0.21,0.45
				c0.05,0.1,0.1,0.19,0.16,0.28c0.01,0.02,0.02,0.03,0.04,0.05c0.04,0.07,0.07,0.14,0.12,0.2l46.45,63.55l-29.75,47.3
				c-1.25,1.99-0.72,4.61,1.2,5.96l56.66,39.78l-20.19,43.94c-0.5,1.1-0.54,2.35-0.09,3.47c0.44,1.12,1.33,2.01,2.45,2.46
				l209.24,84.37c0.04,0.02,0.09,0.02,0.13,0.04c0.18,0.07,0.36,0.12,0.55,0.16c0,0,0.01,0,0.01,0c0.02,0.01,0.05,0.01,0.07,0.02
				c0.29,0.06,0.58,0.1,0.87,0.1c0.01,0,0.01,0,0.02,0c0.28,0,0.55-0.04,0.83-0.1c0.15-0.03,0.3-0.07,0.45-0.12
				c0.03-0.01,0.06-0.02,0.09-0.03c0.14-0.05,0.28-0.07,0.41-0.13c0.04-0.02,0.07-0.04,0.11-0.06c0.09-0.04,0.17-0.09,0.26-0.14
				c0.04-0.02,0.09-0.03,0.13-0.06c0.04-0.03,0.07-0.06,0.12-0.09c0.06-0.04,0.12-0.09,0.18-0.14c0.15-0.11,0.29-0.21,0.43-0.34
				c0.05-0.04,0.1-0.08,0.14-0.12c0.09-0.09,0.16-0.2,0.24-0.3c0.07-0.09,0.16-0.16,0.23-0.25c0.02-0.03,0.03-0.07,0.06-0.1
				c0.01-0.01,0.02-0.02,0.02-0.03c0.01-0.02,0.03-0.03,0.04-0.05c0.05-0.07,0.07-0.16,0.11-0.23c0.1-0.18,0.19-0.36,0.26-0.54
				c0.01-0.02,0.02-0.05,0.03-0.07c0.03-0.08,0.05-0.17,0.07-0.25c0.06-0.21,0.11-0.41,0.14-0.62c0-0.02,0.01-0.04,0.01-0.06
				c0.01-0.05,0.02-0.09,0.03-0.13l24.41-242.99l210.5,38.12l29.73,40.65c0.85,1.17,2.19,1.81,3.56,1.81c0.62,0,1.25-0.13,1.84-0.4
				l57.01-26.18c0.04-0.02,0.07-0.05,0.1-0.06c0.27-0.13,0.52-0.29,0.75-0.48c0.08-0.06,0.16-0.13,0.24-0.2
				c0.2-0.18,0.38-0.37,0.54-0.58c0.05-0.06,0.11-0.12,0.15-0.19c0.19-0.28,0.36-0.58,0.48-0.91c0.03-0.07,0.04-0.14,0.06-0.2
				c0.06-0.19,0.13-0.39,0.17-0.59c0.01-0.08,0.01-0.15,0.02-0.23c0.01-0.05,0.03-0.09,0.03-0.14l5.54-58.71
				C702.17,468.73,702.16,468.67,702.16,468.6z M632.8,58.87L491.46,280.49l-57.37-50.61L632.8,58.87z M535.83,331.4l-47.08,31.18
				l-14.76-48.32c-0.06-0.19-0.13-0.38-0.22-0.56c-0.01-0.02-0.01-0.04-0.02-0.06c-0.12-0.24-0.26-0.47-0.42-0.68
				c-0.02-0.02-0.03-0.05-0.04-0.07l-83.91-110.69L535.83,331.4z M582.44,491.71l-137.77-89.36l40.73-26.98L582.44,491.71z
				 M477.38,355.51l-42.28-38.3l31.33,2.49L477.38,355.51z M401.33,153.63l17.75,63l-52.04-45.91L401.33,153.63z M360.42,178.59
				l99.9,131.78l-37.42-2.97c-1.88-0.15-3.65,0.92-4.4,2.65c-0.75,1.73-0.31,3.75,1.09,5.02l59.51,53.91l-40.77,27l-92.07-181.73
				L360.42,178.59z M340.55,234.59l39.73,221.91l-75.53-89.52L340.55,234.59z M292.5,221.83l36.47-2.2l-59.92,53.26
				C279.56,249.84,289.29,228.76,292.5,221.83z M333.31,227.58l-36.09,133.47l-65.71-42.98l27.8-24.71c0,0,0,0,0,0L333.31,227.58z
				 M104.51,430.96l105.71-93.97l-70.53,142.11L104.51,430.96z M220.75,335.6l4.39,82.95l-72.55,54.36L220.75,335.6z M146.54,488.47
				l79.44-59.52l22.43,198.89L146.54,488.47z M229.13,327.05l63.07,41.26l-58.56,43.88L229.13,327.05z M295.74,376.68l5.95,195.09
				l-66.56-149.68L295.74,376.68z M210.55,275.26l49.18-3.17c-2.3,5.05-4.62,10.17-6.92,15.24l-31.41,27.92c0,0-0.01,0.01-0.01,0.01
				l-39.89,35.46C189.18,330.64,202.13,297.05,210.55,275.26z M144.39,322.95l39.35-2.68c-7.45,19.36-14.6,37.99-16.47,43.09
				l-58.64,52.12C116.95,393.48,132.59,353.17,144.39,322.95z M121.41,544.92l25.66-40.79l88.28,120.78L121.41,544.92z
				 M159.33,632.93l17.59-38.27l151.78,106.56L159.33,632.93z M258.81,641.39L237,448l65.76,147.87c0,0.01,0.01,0.01,0.01,0.02
				l49.37,111.01L258.81,641.39z M359.9,702.68l-48.11-108.19l69.55-105.23L359.9,702.68z M310.77,580.05l-6.09-199.47l77.34,91.66
				L310.77,580.05z M390,460.76l-38.95-217.54l80.45,158.78L390,460.76z M395.11,468.81l42.68-60.42l145.76,94.54L395.11,468.81z
				 M492.81,370.47l47.94-31.75l51.85,151.38L492.81,370.47z M552.63,346.22l137.14,120.99l-82.68,38.02L552.63,346.22z
				 M636.66,547.76l-22.13-30.25l63.13,11.43L636.66,547.76z M688.29,521.9l-69.13-12.52l73.5-33.8L688.29,521.9z"/>
		</g>
		<g>
			<g>
				<path class="st5" d="M872.57,263.82v-29.7h154.53v29.7h-59.92v185.02h-34.69V263.82H872.57z"/>
				<path class="st5" d="M1035.52,448.84V297.2h32.06v16.29c3.33-5.61,8.1-10.51,14.32-14.72c6.22-4.2,13.62-6.31,22.21-6.31
					c8.06,0,14.63,1.14,19.71,3.42v30.22c-6.66-2.1-13.23-3.15-19.71-3.15c-11.39,0-20.11,4.43-26.15,13.27
					c-6.04,8.85-9.07,20.63-9.07,35.35v77.27H1035.52z"/>
				<path class="st5" d="M1139.33,393.91V297.2h33.38v92.51c0,23.65,8.32,35.48,24.97,35.48c9.99,0,17.78-4.25,23.39-12.75
					c5.6-8.5,8.41-18.61,8.41-30.35V297.2h33.11v151.64h-32.06v-17.61h-0.26c-2.46,5.43-7.14,10.51-14.06,15.24
					c-6.92,4.73-15.55,7.1-25.89,7.1c-6.14,0-11.96-0.92-17.48-2.76c-5.52-1.84-10.91-4.82-16.16-8.94
					c-5.26-4.11-9.46-10.29-12.61-18.53C1140.9,415.11,1139.33,405.3,1139.33,393.91z"/>
				<path class="st5" d="M1287.55,417.3l23.92-13.93c10.51,15.42,24.18,23.13,41,23.13c8.23,0,14.76-1.62,19.58-4.86
					c4.82-3.24,7.23-7.58,7.23-13.01c0-4.38-1.97-8.23-5.91-11.56c-3.94-3.33-8.11-5.82-12.48-7.49c-4.38-1.66-10.95-3.9-19.71-6.7
					c-1.58-0.53-2.72-0.87-3.42-1.05c-6.31-2.1-11.61-4.16-15.9-6.18c-4.29-2.01-8.8-4.73-13.53-8.15
					c-4.73-3.42-8.32-7.71-10.78-12.88c-2.46-5.17-3.68-11.17-3.68-18c0-13.31,5.6-24,16.82-32.06
					c11.21-8.06,25.14-12.09,41.79-12.09c12.44,0,24.18,3.29,35.22,9.86c11.04,6.57,19.27,14.94,24.7,25.1l-22.08,13.4
					c-10.34-14.19-22.86-21.29-37.58-21.29c-8.06,0-14.24,1.62-18.53,4.86c-4.29,3.24-6.44,7.49-6.44,12.75
					c0,4.38,1.88,8.28,5.65,11.7c3.77,3.42,7.66,5.91,11.7,7.49c4.03,1.58,9.72,3.59,17.08,6.04c1.92,0.53,3.33,0.97,4.2,1.31
					c31.18,9.99,46.78,25.06,46.78,45.2c0,12.44-5.22,23-15.64,31.67c-10.43,8.67-25.19,13.01-44.28,13.01
					c-14.72,0-27.82-3.24-39.29-9.72C1302.48,437.37,1293.68,428.52,1287.55,417.3z"/>
				<path class="st5" d="M1425.79,302.98V274.6h23.39v-40.47h33.11v40.47h34.69v28.38h-34.69v97.24c0,7.19,1.44,12.35,4.34,15.51
					c2.89,3.15,7.31,4.73,13.27,4.73h17.35v28.38h-21.55c-31.01,0-46.52-15.42-46.52-46.25v-99.61H1425.79z"/>
				<path class="st5" d="M1546.16,448.84V234.12h33.11v214.72H1546.16z"/>
				<rect x="1620" y="234.12" class="st5" width="35.74" height="36.53"/>
				<rect x="1621.58" y="293.26" class="st5" width="32.85" height="155.58"/>
				<path class="st5" d="M1693.85,448.84V297.2h32.33v19.19h0.26c2.63-5.61,7.49-10.99,14.59-16.16c7.1-5.17,16.25-7.75,27.46-7.75
					c15.07,0,27.07,4.64,36.01,13.93c8.94,9.29,13.4,24.27,13.4,44.94v97.5h-33.38V355.8c0-23.3-7.88-34.95-23.65-34.95
					c-9.64,0-17.65,3.86-24.05,11.56c-6.4,7.71-9.59,17.26-9.59,28.65v87.78H1693.85z"/>
				<path class="st5" d="M1843.39,372.36c0-24.35,6.7-43.76,20.1-58.21s30.26-21.68,50.59-21.68c19.97,0,36.44,7.27,49.41,21.81
					c12.96,14.54,19.45,33.47,19.45,56.77c0,4.56-0.26,9.03-0.79,13.4h-105.12c0,11.56,3.46,21.51,10.38,29.83
					c6.92,8.32,16.43,12.48,28.52,12.48c8.41,0,15.81-2.06,22.21-6.18c6.39-4.11,11.26-9.42,14.59-15.9l27.86,9.46
					c-4.91,11.21-12.88,20.59-23.92,28.12c-11.04,7.53-24.79,11.3-41.26,11.3c-21.2,0-38.5-7.36-51.91-22.08
					S1843.39,397.07,1843.39,372.36z M1877.56,361.06h71.48c0-11.56-3.07-21.42-9.2-29.57c-6.14-8.15-14.72-12.22-25.76-12.22
					c-11.04,0-19.84,4.16-26.41,12.48C1881.11,340.08,1877.73,349.85,1877.56,361.06z"/>
				<path class="st5" d="M1998.71,417.3l23.92-13.93c10.51,15.42,24.18,23.13,41,23.13c8.23,0,14.76-1.62,19.58-4.86
					c4.82-3.24,7.23-7.58,7.23-13.01c0-4.38-1.97-8.23-5.91-11.56c-3.94-3.33-8.11-5.82-12.48-7.49c-4.38-1.66-10.95-3.9-19.71-6.7
					c-1.58-0.53-2.72-0.87-3.42-1.05c-6.31-2.1-11.61-4.16-15.9-6.18c-4.29-2.01-8.8-4.73-13.53-8.15
					c-4.73-3.42-8.32-7.71-10.78-12.88c-2.46-5.17-3.68-11.17-3.68-18c0-13.31,5.6-24,16.82-32.06
					c11.21-8.06,25.14-12.09,41.79-12.09c12.44,0,24.18,3.29,35.22,9.86c11.04,6.57,19.27,14.94,24.7,25.1l-22.08,13.4
					c-10.34-14.19-22.86-21.29-37.58-21.29c-8.06,0-14.24,1.62-18.53,4.86c-4.29,3.24-6.44,7.49-6.44,12.75
					c0,4.38,1.88,8.28,5.65,11.7c3.77,3.42,7.66,5.91,11.7,7.49c4.03,1.58,9.72,3.59,17.08,6.04c1.92,0.53,3.33,0.97,4.2,1.31
					c31.18,9.99,46.78,25.06,46.78,45.2c0,12.44-5.22,23-15.64,31.67c-10.43,8.67-25.19,13.01-44.28,13.01
					c-14.72,0-27.82-3.24-39.29-9.72C2013.65,437.37,2004.84,428.52,1998.71,417.3z"/>
				<path class="st5" d="M872.57,263.82v-29.7h154.53v29.7h-59.92v185.02h-34.69V263.82H872.57z"/>
				<path class="st5" d="M1035.52,448.84V297.2h32.06v16.29c3.33-5.61,8.1-10.51,14.32-14.72c6.22-4.2,13.62-6.31,22.21-6.31
					c8.06,0,14.63,1.14,19.71,3.42v30.22c-6.66-2.1-13.23-3.15-19.71-3.15c-11.39,0-20.11,4.43-26.15,13.27
					c-6.04,8.85-9.07,20.63-9.07,35.35v77.27H1035.52z"/>
				<path class="st5" d="M1139.33,393.91V297.2h33.38v92.51c0,23.65,8.32,35.48,24.97,35.48c9.99,0,17.78-4.25,23.39-12.75
					c5.6-8.5,8.41-18.61,8.41-30.35V297.2h33.11v151.64h-32.06v-17.61h-0.26c-2.46,5.43-7.14,10.51-14.06,15.24
					c-6.92,4.73-15.55,7.1-25.89,7.1c-6.14,0-11.96-0.92-17.48-2.76c-5.52-1.84-10.91-4.82-16.16-8.94
					c-5.26-4.11-9.46-10.29-12.61-18.53C1140.9,415.11,1139.33,405.3,1139.33,393.91z"/>
				<path class="st5" d="M1287.55,417.3l23.92-13.93c10.51,15.42,24.18,23.13,41,23.13c8.23,0,14.76-1.62,19.58-4.86
					c4.82-3.24,7.23-7.58,7.23-13.01c0-4.38-1.97-8.23-5.91-11.56c-3.94-3.33-8.11-5.82-12.48-7.49c-4.38-1.66-10.95-3.9-19.71-6.7
					c-1.58-0.53-2.72-0.87-3.42-1.05c-6.31-2.1-11.61-4.16-15.9-6.18c-4.29-2.01-8.8-4.73-13.53-8.15
					c-4.73-3.42-8.32-7.71-10.78-12.88c-2.46-5.17-3.68-11.17-3.68-18c0-13.31,5.6-24,16.82-32.06
					c11.21-8.06,25.14-12.09,41.79-12.09c12.44,0,24.18,3.29,35.22,9.86c11.04,6.57,19.27,14.94,24.7,25.1l-22.08,13.4
					c-10.34-14.19-22.86-21.29-37.58-21.29c-8.06,0-14.24,1.62-18.53,4.86c-4.29,3.24-6.44,7.49-6.44,12.75
					c0,4.38,1.88,8.28,5.65,11.7c3.77,3.42,7.66,5.91,11.7,7.49c4.03,1.58,9.72,3.59,17.08,6.04c1.92,0.53,3.33,0.97,4.2,1.31
					c31.18,9.99,46.78,25.06,46.78,45.2c0,12.44-5.22,23-15.64,31.67c-10.43,8.67-25.19,13.01-44.28,13.01
					c-14.72,0-27.82-3.24-39.29-9.72C1302.48,437.37,1293.68,428.52,1287.55,417.3z"/>
				<path class="st5" d="M1425.79,302.98V274.6h23.39v-40.47h33.11v40.47h34.69v28.38h-34.69v97.24c0,7.19,1.44,12.35,4.34,15.51
					c2.89,3.15,7.31,4.73,13.27,4.73h17.35v28.38h-21.55c-31.01,0-46.52-15.42-46.52-46.25v-99.61H1425.79z"/>
				<path class="st5" d="M1546.16,448.84V234.12h33.11v214.72H1546.16z"/>
				<rect x="1620" y="234.12" class="st5" width="35.74" height="36.53"/>
				<rect x="1621.58" y="293.26" class="st5" width="32.85" height="155.58"/>
				<path class="st5" d="M1693.85,448.84V297.2h32.33v19.19h0.26c2.63-5.61,7.49-10.99,14.59-16.16c7.1-5.17,16.25-7.75,27.46-7.75
					c15.07,0,27.07,4.64,36.01,13.93c8.94,9.29,13.4,24.27,13.4,44.94v97.5h-33.38V355.8c0-23.3-7.88-34.95-23.65-34.95
					c-9.64,0-17.65,3.86-24.05,11.56c-6.4,7.71-9.59,17.26-9.59,28.65v87.78H1693.85z"/>
				<path class="st5" d="M1843.39,372.36c0-24.35,6.7-43.76,20.1-58.21s30.26-21.68,50.59-21.68c19.97,0,36.44,7.27,49.41,21.81
					c12.96,14.54,19.45,33.47,19.45,56.77c0,4.56-0.26,9.03-0.79,13.4h-105.12c0,11.56,3.46,21.51,10.38,29.83
					c6.92,8.32,16.43,12.48,28.52,12.48c8.41,0,15.81-2.06,22.21-6.18c6.39-4.11,11.26-9.42,14.59-15.9l27.86,9.46
					c-4.91,11.21-12.88,20.59-23.92,28.12c-11.04,7.53-24.79,11.3-41.26,11.3c-21.2,0-38.5-7.36-51.91-22.08
					S1843.39,397.07,1843.39,372.36z M1877.56,361.06h71.48c0-11.56-3.07-21.42-9.2-29.57c-6.14-8.15-14.72-12.22-25.76-12.22
					c-11.04,0-19.84,4.16-26.41,12.48C1881.11,340.08,1877.73,349.85,1877.56,361.06z"/>
				<path class="st5" d="M1998.71,417.3l23.92-13.93c10.51,15.42,24.18,23.13,41,23.13c8.23,0,14.76-1.62,19.58-4.86
					c4.82-3.24,7.23-7.58,7.23-13.01c0-4.38-1.97-8.23-5.91-11.56c-3.94-3.33-8.11-5.82-12.48-7.49c-4.38-1.66-10.95-3.9-19.71-6.7
					c-1.58-0.53-2.72-0.87-3.42-1.05c-6.31-2.1-11.61-4.16-15.9-6.18c-4.29-2.01-8.8-4.73-13.53-8.15
					c-4.73-3.42-8.32-7.71-10.78-12.88c-2.46-5.17-3.68-11.17-3.68-18c0-13.31,5.6-24,16.82-32.06
					c11.21-8.06,25.14-12.09,41.79-12.09c12.44,0,24.18,3.29,35.22,9.86c11.04,6.57,19.27,14.94,24.7,25.1l-22.08,13.4
					c-10.34-14.19-22.86-21.29-37.58-21.29c-8.06,0-14.24,1.62-18.53,4.86c-4.29,3.24-6.44,7.49-6.44,12.75
					c0,4.38,1.88,8.28,5.65,11.7c3.77,3.42,7.66,5.91,11.7,7.49c4.03,1.58,9.72,3.59,17.08,6.04c1.92,0.53,3.33,0.97,4.2,1.31
					c31.18,9.99,46.78,25.06,46.78,45.2c0,12.44-5.22,23-15.64,31.67c-10.43,8.67-25.19,13.01-44.28,13.01
					c-14.72,0-27.82-3.24-39.29-9.72C2013.65,437.37,2004.84,428.52,1998.71,417.3z"/>
			</g>
			<g>
				<path class="st5" d="M1055.99,613.76v-91.54h35.34c9.35,0,16.67,2.51,21.97,7.54c5.3,5.03,7.95,11.7,7.95,20.03
					c0,8.56-2.71,15.32-8.13,20.26c-5.42,4.95-12.61,7.42-21.56,7.42h-22.15v36.29H1055.99z M1069.42,566.04h20.15
					c5.65,0,10.03-1.37,13.14-4.12c3.1-2.75,4.65-6.79,4.65-12.13c0-5.26-1.53-9.25-4.59-11.96c-3.06-2.71-7.5-4.06-13.31-4.06
					h-20.03V566.04z"/>
				<path class="st5" d="M1172.77,613.76v-91.54h36.64c9.27,0,16.39,2.45,21.38,7.36c4.99,4.91,7.48,11.02,7.48,18.32
					c0,6.28-1.49,11.43-4.48,15.43c-2.99,4.01-6.32,6.64-10.01,7.89c3.06,1.96,5.26,4.12,6.6,6.48c1.33,2.36,2.47,5.81,3.42,10.37
					c1.02,4.87,2.2,9.19,3.53,12.96c1.33,3.77,3.38,8.01,6.13,12.72h-15.08c-3.46-5.81-6.36-14.06-8.72-24.74
					c-0.87-4.16-2.22-7.34-4.07-9.54c-1.85-2.2-4.73-3.3-8.66-3.3h-20.73v37.58H1172.77z M1186.2,564.75h21.09
					c5.5,0,9.72-1.39,12.66-4.18c2.95-2.79,4.42-6.66,4.42-11.6c0-4.55-1.53-8.23-4.59-11.02c-3.06-2.79-7.42-4.18-13.08-4.18h-20.5
					V564.75z"/>
				<path class="st5" d="M1286.12,568.05c0-14.37,3.55-25.96,10.66-34.75c7.11-8.8,16.55-13.19,28.33-13.19s21.19,4.4,28.21,13.19
					c7.03,8.8,10.54,20.42,10.54,34.87c0,14.53-3.53,26.11-10.6,34.75c-7.07,8.64-16.46,12.96-28.16,12.96
					c-11.78,0-21.23-4.34-28.33-13.02C1289.68,594.18,1286.12,582.58,1286.12,568.05z M1300.14,568.05
					c0,11.15,2.22,19.99,6.66,26.51c4.44,6.52,10.55,9.78,18.32,9.78c7.7,0,13.76-3.22,18.2-9.66c4.44-6.44,6.66-15.28,6.66-26.51
					c0-11.07-2.18-19.93-6.54-26.57c-4.36-6.64-10.47-9.95-18.32-9.95c-7.78,0-13.88,3.28-18.32,9.84
					C1302.36,548.04,1300.14,556.89,1300.14,568.05z"/>
				<path class="st5" d="M1404.08,533.76v-11.55h67.27v11.55h-26.86v79.99h-13.43v-79.99H1404.08z"/>
				<path class="st5" d="M1512.25,568.05c0-14.37,3.55-25.96,10.66-34.75c7.11-8.8,16.55-13.19,28.33-13.19
					c11.78,0,21.19,4.4,28.21,13.19c7.03,8.8,10.55,20.42,10.55,34.87c0,14.53-3.53,26.11-10.6,34.75
					c-7.07,8.64-16.46,12.96-28.16,12.96c-11.78,0-21.23-4.34-28.33-13.02C1515.8,594.18,1512.25,582.58,1512.25,568.05z
					 M1526.27,568.05c0,11.15,2.22,19.99,6.66,26.51c4.44,6.52,10.55,9.78,18.32,9.78c7.7,0,13.76-3.22,18.2-9.66
					c4.44-6.44,6.66-15.28,6.66-26.51c0-11.07-2.18-19.93-6.54-26.57c-4.36-6.64-10.47-9.95-18.32-9.95
					c-7.78,0-13.88,3.28-18.32,9.84C1528.49,548.04,1526.27,556.89,1526.27,568.05z"/>
				<path class="st5" d="M1636.8,568.05c0-14.77,3.73-26.45,11.19-35.05c7.46-8.6,17.12-12.9,28.98-12.9
					c7.62,0,14.1,2.08,19.44,6.24c5.34,4.16,9.31,9.23,11.9,15.2l-11.55,3.89c-5.18-9.19-11.86-13.78-20.03-13.78
					c-7.93,0-14.26,3.32-18.97,9.95c-4.71,6.64-7.07,15.45-7.07,26.45c0,11.15,2.39,19.99,7.19,26.51
					c4.79,6.52,11.07,9.78,18.85,9.78c5.1,0,9.56-1.49,13.37-4.48c3.81-2.99,6.62-6.64,8.42-10.96l12.13,3.77
					c-1.18,2.83-2.67,5.48-4.48,7.95c-1.81,2.47-4.05,4.93-6.72,7.36c-2.67,2.44-5.95,4.36-9.84,5.77
					c-3.89,1.41-8.11,2.12-12.66,2.12c-11.63,0-21.23-4.24-28.81-12.72C1640.59,594.67,1636.8,582.97,1636.8,568.05z"/>
				<path class="st5" d="M1754.99,568.05c0-14.37,3.55-25.96,10.66-34.75c7.11-8.8,16.55-13.19,28.33-13.19s21.19,4.4,28.21,13.19
					c7.03,8.8,10.55,20.42,10.55,34.87c0,14.53-3.53,26.11-10.6,34.75c-7.07,8.64-16.46,12.96-28.16,12.96
					c-11.78,0-21.23-4.34-28.33-13.02C1758.54,594.18,1754.99,582.58,1754.99,568.05z M1769.01,568.05
					c0,11.15,2.22,19.99,6.66,26.51c4.44,6.52,10.55,9.78,18.32,9.78c7.7,0,13.76-3.22,18.2-9.66c4.44-6.44,6.66-15.28,6.66-26.51
					c0-11.07-2.18-19.93-6.54-26.57c-4.36-6.64-10.47-9.95-18.32-9.95c-7.78,0-13.88,3.28-18.32,9.84
					C1771.23,548.04,1769.01,556.89,1769.01,568.05z"/>
				<path class="st5" d="M1885.31,613.76v-91.54h13.43v79.99h42.18v11.55H1885.31z"/>
			</g>
		</g>
	</g>
</g>
<g id="OUTLINE" class="st0">
	<path id="XMLID_76_" class="st6" d="M-1016.84-3128.61"/>
	<path id="XMLID_53_" class="st7" d="M-1016.84-3128.61"/>
	<path id="XMLID_2006_" class="st6" d="M3843.54-705.1"/>
	<path id="XMLID_2005_" class="st7" d="M3843.54-705.1"/>
	<path id="XMLID_945_" class="st6" d="M699.16-705.1"/>
	<path id="XMLID_105_" class="st7" d="M699.16-705.1"/>
	<path id="XMLID_103_" class="st6" d="M5676.62-705.1"/>
	<path id="XMLID_48_" class="st7" d="M5676.62-705.1"/>
	<path id="XMLID_1237_" class="st6" d="M5621.45-1026.77"/>
	<path id="XMLID_1236_" class="st7" d="M5621.45-1026.77"/>
	<g id="XMLID_1315_" class="st8">
		<g id="XMLID_1922_">
			<path id="XMLID_2003_" class="st9" d="M2940.49-1050.21v-66.17h-20.96v-11.86h58.99v11.86h-20.7v66.17H2940.49z"/>
			<path id="XMLID_2001_" class="st9" d="M3001.51-1102.23l4.01-5.2c1.87-0.52,3.68-0.8,5.41-0.83c1.73-0.03,3.43-0.05,5.1-0.05
				c2.81,0,5.25,0.16,7.33,0.47c2.08,0.31,3.88,0.7,5.38,1.17c1.51,0.47,2.75,0.95,3.72,1.46c0.97,0.5,1.75,0.95,2.34,1.33
				l2.6,15.45l-14.57,1.82l-2.55-9.16c-0.69-0.1-1.39-0.21-2.08-0.31c-0.69-0.1-1.39-0.16-2.08-0.16c-3.36,0-6.24,0.62-8.64,1.85
				c-2.39,1.23-4.39,2.96-5.98,5.18v39.02h-16.49v-57.22l16.49-1.04V-1102.23z"/>
			<path id="XMLID_1999_" class="st9" d="M3081.31-1107.44l16.49-1.04v58.26h-16.49v-5.2l-4.21,5.2c-1.94,0.59-4.04,0.88-6.29,0.88
				c-4.65,0-8.53-0.66-11.65-1.98c-3.12-1.32-5.63-3.08-7.52-5.28c-1.89-2.2-3.23-4.73-4.03-7.57c-0.8-2.84-1.2-5.79-1.2-8.84
				v-34.44l16.44-1.04v35.48c0,1.8,0.15,3.43,0.44,4.86c0.29,1.44,0.81,2.67,1.53,3.69c0.73,1.02,1.69,1.8,2.89,2.34
				c1.2,0.54,2.68,0.81,4.45,0.81c1.14,0,2.2-0.17,3.17-0.52c0.97-0.35,1.85-0.8,2.63-1.35c0.78-0.55,1.45-1.14,2-1.77
				c0.55-0.62,1-1.23,1.35-1.82V-1107.44z"/>
			<path id="XMLID_1997_" class="st9" d="M3151.48-1091.93c-0.97-0.62-1.99-1.23-3.07-1.82c-1.08-0.59-2.24-1.12-3.49-1.59
				s-2.58-0.85-4.01-1.14c-1.42-0.29-2.95-0.44-4.58-0.44c-1.49,0-3.03,0.07-4.6,0.21c-1.58,0.14-3.01,0.39-4.29,0.75
				c-1.28,0.36-2.34,0.87-3.17,1.51c-0.83,0.64-1.25,1.45-1.25,2.42c0,0.9,0.47,1.67,1.4,2.31c0.94,0.64,2.12,1.21,3.54,1.69
				c1.42,0.49,2.97,0.9,4.66,1.25c1.68,0.35,3.29,0.68,4.81,0.99c1.77,0.38,3.49,0.76,5.15,1.14c1.66,0.38,3.02,0.76,4.06,1.14
				c1.73,0.69,3.37,1.54,4.92,2.55c1.54,1.01,2.9,2.14,4.06,3.41c1.16,1.27,2.08,2.64,2.76,4.14c0.68,1.49,1.01,3.07,1.01,4.73
				c0,2.32-0.46,4.41-1.38,6.27c-0.92,1.86-2.17,3.49-3.75,4.92c-1.58,1.42-3.4,2.65-5.46,3.69c-2.06,1.04-4.25,1.89-6.55,2.55
				c-2.31,0.66-4.66,1.14-7.05,1.46c-2.39,0.31-4.68,0.47-6.87,0.47c-2.08,0-4.14-0.15-6.19-0.44c-2.05-0.29-4.01-0.7-5.88-1.22
				c-1.87-0.52-3.62-1.14-5.23-1.85c-1.61-0.71-3.01-1.48-4.19-2.31l5.1-10.92c2.39,1.46,4.93,2.66,7.62,3.62
				c2.69,0.95,5.64,1.43,8.87,1.43c0.8,0,1.72-0.04,2.78-0.13c1.06-0.09,2.15-0.24,3.28-0.47c1.13-0.23,2.25-0.52,3.36-0.88
				c1.11-0.36,2.1-0.82,2.96-1.38c0.87-0.55,1.57-1.22,2.11-2c0.54-0.78,0.81-1.69,0.81-2.73c0-0.94-0.42-1.74-1.25-2.42
				c-0.83-0.68-1.89-1.26-3.17-1.74c-1.28-0.49-2.69-0.89-4.21-1.22c-1.53-0.33-2.98-0.63-4.37-0.91c-1.01-0.21-2.02-0.42-3.04-0.65
				c-1.02-0.23-2-0.46-2.94-0.7c-0.94-0.24-1.8-0.49-2.6-0.75c-0.8-0.26-1.47-0.53-2.03-0.81h0.05c-2.29-1.07-4.19-2.21-5.7-3.41
				c-1.51-1.2-2.71-2.43-3.59-3.69c-0.88-1.27-1.51-2.58-1.87-3.93s-0.55-2.72-0.55-4.11c0-2.64,0.76-4.92,2.29-6.84
				c1.53-1.92,3.56-3.52,6.11-4.79c2.55-1.27,5.48-2.2,8.79-2.81c3.31-0.61,6.77-0.91,10.38-0.91c1.94,0,3.89,0.15,5.85,0.44
				c1.96,0.3,3.82,0.68,5.59,1.14c1.77,0.47,3.38,1,4.84,1.59c1.46,0.59,2.65,1.18,3.59,1.77L3151.48-1091.93z"/>
			<path id="XMLID_1994_" class="st9" d="M3195.86-1070.4c0,1.77,0.04,3.25,0.13,4.45c0.09,1.2,0.27,2.16,0.55,2.89
				c0.28,0.73,0.66,1.25,1.14,1.56c0.49,0.31,1.14,0.47,1.98,0.47c1.63,0,3.16-0.2,4.58-0.6c1.42-0.4,2.73-0.88,3.93-1.46
				s2.29-1.19,3.28-1.85c0.99-0.66,1.85-1.23,2.58-1.72l5.41,9.42c-0.45,0.38-1.24,1.01-2.37,1.87c-1.13,0.87-2.63,1.75-4.5,2.65
				c-1.87,0.9-4.14,1.69-6.79,2.37c-2.65,0.68-5.71,1.01-9.18,1.01c-3.75,0-6.75-0.59-9.03-1.77c-2.27-1.18-4.01-2.77-5.2-4.79
				c-1.2-2.01-1.99-4.37-2.37-7.07c-0.38-2.71-0.57-5.57-0.57-8.58v-24.24h-12.59v-11.65h12.59v-10.92l16.23-5.72v16.65h23.88
				l-1.4,11.65h-22.26V-1070.4z"/>
			<path id="XMLID_1992_" class="st9" d="M3244.5-1122.11l-8.84,2.08h-9.16l-1.4-11.65h32.25v61.28c0,1.77,0.17,3.25,0.52,4.45
				c0.35,1.2,0.81,2.16,1.38,2.89c0.57,0.73,1.22,1.25,1.95,1.56c0.73,0.31,1.46,0.47,2.18,0.47c0.97,0,1.86-0.15,2.68-0.44
				c0.81-0.29,1.57-0.67,2.26-1.12c0.69-0.45,1.33-0.96,1.9-1.53c0.57-0.57,1.08-1.14,1.53-1.69l5.62,10.04
				c-0.38,0.31-0.92,0.82-1.61,1.53c-0.69,0.71-1.62,1.43-2.78,2.16c-1.16,0.73-2.6,1.37-4.32,1.92c-1.72,0.55-3.79,0.83-6.22,0.83
				c-3.75,0-6.97-0.59-9.68-1.77c-2.71-1.18-4.94-2.77-6.71-4.79c-1.77-2.01-3.08-4.37-3.93-7.07s-1.27-5.57-1.27-8.58v-45.88
				L3244.5-1122.11z"/>
			<path id="XMLID_1989_" class="st9" d="M3298.65-1097.86l-8.84,2.08h-9.1l-1.46-11.65h32.77v35.22c0,1.42,0.17,2.73,0.52,3.93
				c0.35,1.2,0.83,2.22,1.46,3.07c0.62,0.85,1.37,1.52,2.24,2c0.87,0.49,1.82,0.73,2.86,0.73c2.29,0,4.3-0.38,6.03-1.14
				c1.73-0.76,3.5-2.01,5.31-3.75l3.07,12.07c-0.49,0.38-1.09,0.9-1.82,1.56c-0.73,0.66-1.69,1.32-2.89,1.98
				c-1.2,0.66-2.66,1.23-4.4,1.72c-1.73,0.49-3.83,0.73-6.29,0.73c-3.99,0-7.43-0.62-10.33-1.87c-2.9-1.25-5.29-2.94-7.18-5.07
				c-1.89-2.13-3.3-4.61-4.21-7.44c-0.92-2.83-1.38-5.82-1.38-8.97v-20.5L3298.65-1097.86z M3294.54-1128.3h17.53v13.58h-17.53
				V-1128.3z"/>
			<path id="XMLID_1987_" class="st9" d="M3356.24-1050.21h-16.49v-57.22l16.49-1.04v6.24l4.01-5.2c1.32-0.35,2.73-0.58,4.24-0.7
				c1.51-0.12,3.27-0.18,5.28-0.18c3.16,0,6,0.47,8.53,1.4c2.53,0.94,4.67,2.26,6.42,3.98c1.75,1.72,3.09,3.8,4.03,6.24
				s1.4,5.18,1.4,8.19v38.29h-16.49v-38.29c0-1.42-0.22-2.64-0.65-3.67c-0.43-1.02-1-1.86-1.69-2.52c-0.69-0.66-1.49-1.14-2.39-1.46
				c-0.9-0.31-1.84-0.47-2.81-0.47c-2.18,0-4.03,0.36-5.54,1.07c-1.51,0.71-2.96,1.81-4.34,3.3V-1050.21z"/>
			<path id="XMLID_1984_" class="st9" d="M3453.36-1058.43c-1.39,1.28-2.88,2.47-4.47,3.56c-1.6,1.09-3.36,2.05-5.31,2.86
				c-1.94,0.82-4.09,1.46-6.45,1.92c-2.36,0.47-4.96,0.7-7.8,0.7c-4.99,0-9.39-0.81-13.19-2.44c-3.8-1.63-6.98-3.81-9.55-6.53
				c-2.57-2.72-4.5-5.85-5.8-9.39c-1.3-3.54-1.95-7.23-1.95-11.08c0-2.46,0.29-4.9,0.88-7.31c0.59-2.41,1.46-4.7,2.6-6.87
				c1.14-2.17,2.54-4.19,4.19-6.06c1.65-1.87,3.54-3.49,5.67-4.84c2.13-1.35,4.49-2.42,7.08-3.2c2.58-0.78,5.37-1.17,8.35-1.17
				c4.16,0,7.87,0.62,11.13,1.85c3.26,1.23,6.02,2.95,8.27,5.15c2.25,2.2,3.97,4.85,5.15,7.93c1.18,3.09,1.77,6.5,1.77,10.25
				c0,0.94-0.06,2.17-0.18,3.69c-0.12,1.53-0.27,3.17-0.44,4.94h-38.86c0.07,1.87,0.59,3.65,1.56,5.33c0.97,1.68,2.21,3.15,3.72,4.4
				c1.51,1.25,3.19,2.25,5.05,2.99c1.85,0.75,3.72,1.12,5.59,1.12c1.77,0,3.48-0.19,5.12-0.57c1.65-0.38,3.14-0.85,4.47-1.4
				c1.33-0.55,2.5-1.13,3.49-1.72c0.99-0.59,1.73-1.09,2.21-1.51L3453.36-1058.43z M3438.64-1085.17c0-1.6-0.23-3.1-0.7-4.53
				c-0.47-1.42-1.15-2.68-2.06-3.77c-0.9-1.09-2.03-1.96-3.38-2.6c-1.35-0.64-2.91-0.96-4.68-0.96s-3.31,0.26-4.63,0.78
				c-1.32,0.52-2.45,1.17-3.38,1.95c-0.94,0.78-1.7,1.6-2.29,2.47c-0.59,0.87-1.02,1.63-1.3,2.29l-4.73,5.36l9-0.94L3438.64-1085.17
				z"/>
			<path id="XMLID_1923_" class="st9" d="M3506.26-1091.93c-0.97-0.62-1.99-1.23-3.07-1.82c-1.08-0.59-2.24-1.12-3.49-1.59
				s-2.58-0.85-4.01-1.14c-1.42-0.29-2.95-0.44-4.58-0.44c-1.49,0-3.03,0.07-4.6,0.21c-1.58,0.14-3.01,0.39-4.29,0.75
				c-1.28,0.36-2.34,0.87-3.17,1.51c-0.83,0.64-1.25,1.45-1.25,2.42c0,0.9,0.47,1.67,1.4,2.31c0.94,0.64,2.12,1.21,3.54,1.69
				c1.42,0.49,2.97,0.9,4.66,1.25c1.68,0.35,3.29,0.68,4.81,0.99c1.77,0.38,3.49,0.76,5.15,1.14c1.66,0.38,3.02,0.76,4.06,1.14
				c1.73,0.69,3.37,1.54,4.92,2.55c1.54,1.01,2.9,2.14,4.06,3.41c1.16,1.27,2.08,2.64,2.76,4.14c0.68,1.49,1.01,3.07,1.01,4.73
				c0,2.32-0.46,4.41-1.38,6.27c-0.92,1.86-2.17,3.49-3.75,4.92c-1.58,1.42-3.4,2.65-5.46,3.69c-2.06,1.04-4.25,1.89-6.55,2.55
				c-2.31,0.66-4.66,1.14-7.05,1.46c-2.39,0.31-4.68,0.47-6.87,0.47c-2.08,0-4.14-0.15-6.19-0.44c-2.05-0.29-4.01-0.7-5.88-1.22
				c-1.87-0.52-3.62-1.14-5.23-1.85c-1.61-0.71-3.01-1.48-4.19-2.31l5.1-10.92c2.39,1.46,4.93,2.66,7.62,3.62
				c2.69,0.95,5.64,1.43,8.87,1.43c0.8,0,1.72-0.04,2.78-0.13c1.06-0.09,2.15-0.24,3.28-0.47c1.13-0.23,2.25-0.52,3.36-0.88
				c1.11-0.36,2.1-0.82,2.96-1.38c0.87-0.55,1.57-1.22,2.11-2c0.54-0.78,0.81-1.69,0.81-2.73c0-0.94-0.42-1.74-1.25-2.42
				c-0.83-0.68-1.89-1.26-3.17-1.74c-1.28-0.49-2.69-0.89-4.21-1.22c-1.53-0.33-2.98-0.63-4.37-0.91c-1.01-0.21-2.02-0.42-3.04-0.65
				c-1.02-0.23-2-0.46-2.94-0.7c-0.94-0.24-1.8-0.49-2.6-0.75c-0.8-0.26-1.47-0.53-2.03-0.81h0.05c-2.29-1.07-4.19-2.21-5.7-3.41
				c-1.51-1.2-2.71-2.43-3.59-3.69c-0.88-1.27-1.51-2.58-1.87-3.93s-0.55-2.72-0.55-4.11c0-2.64,0.76-4.92,2.29-6.84
				c1.53-1.92,3.56-3.52,6.11-4.79c2.55-1.27,5.48-2.2,8.79-2.81c3.31-0.61,6.77-0.91,10.38-0.91c1.94,0,3.89,0.15,5.85,0.44
				c1.96,0.3,3.82,0.68,5.59,1.14c1.77,0.47,3.38,1,4.84,1.59c1.46,0.59,2.65,1.18,3.59,1.77L3506.26-1091.93z"/>
		</g>
		<g id="XMLID_1316_">
			<g id="XMLID_1625_">
				<path id="XMLID_1689_" class="st9" d="M2994.29-981.84v-38.28h4.7l14.11,24.43l4.6,8.08h0.31c-0.41-3.17-0.61-6.78-0.61-10.83
					v-21.67h4.09v38.28h-4.7l-14.16-24.58l-4.55-7.87h-0.2c0.34,3.41,0.51,7,0.51,10.78v21.67H2994.29z"/>
				<path id="XMLID_1687_" class="st9" d="M3065.6-981.84v-38.28h23.92v3.48h-19.83v13.29h17.89v3.42h-17.89v14.62h20.24v3.48
					H3065.6z"/>
				<path id="XMLID_1684_" class="st9" d="M3127.05-1016.64v-3.48h27.39v3.48h-11.65v34.81h-4.09v-34.81H3127.05z"/>
				<path id="XMLID_1682_" class="st9" d="M3190.4-1020.12h4.5l5.42,25.86c0.65,3.65,1.09,6.25,1.33,7.82h0.31
					c0.85-4.09,1.4-6.7,1.64-7.82l6.18-25.86h4.4l6.29,25.86c0.48,2.15,1.02,4.75,1.64,7.82h0.2c0.03-0.34,0.49-2.95,1.38-7.82
					l5.47-25.86h4.5l-9,38.28h-4.8l-6.18-25.55c-0.92-4.46-1.43-6.97-1.53-7.51h-0.2c-0.17,0.92-0.46,2.28-0.87,4.09
					c-0.41,1.81-0.66,2.95-0.77,3.42l-6.08,25.55h-4.8L3190.4-1020.12z"/>
				<path id="XMLID_1633_" class="st9" d="M3270.3-1000.95c0-6,1.45-10.84,4.34-14.54c2.9-3.7,6.76-5.55,11.6-5.55
					c4.87,0,8.73,1.84,11.58,5.52c2.84,3.68,4.27,8.55,4.27,14.62c0,6.13-1.44,11-4.32,14.59c-2.88,3.6-6.72,5.39-11.53,5.39
					c-4.84,0-8.71-1.81-11.6-5.44C3271.75-989.99,3270.3-994.85,3270.3-1000.95z M3274.49-1000.95c0,5.04,1.06,9.06,3.17,12.04
					c2.11,2.98,4.97,4.47,8.59,4.47c3.54,0,6.37-1.46,8.48-4.4c2.11-2.93,3.17-6.95,3.17-12.06c0-5.04-1.02-9.08-3.07-12.11
					c-2.04-3.03-4.91-4.55-8.59-4.55c-3.61,0-6.47,1.5-8.59,4.5C3275.55-1010.07,3274.49-1006.03,3274.49-1000.95z"/>
				<path id="XMLID_1629_" class="st9" d="M3343.56-981.84v-38.28h14.92c3.75,0,6.63,1.01,8.64,3.04c2.01,2.03,3.02,4.52,3.02,7.49
					c0,2.69-0.68,4.87-2.04,6.54c-1.36,1.67-2.86,2.73-4.5,3.17c1.43,0.75,2.47,1.67,3.12,2.76c0.65,1.09,1.18,2.61,1.58,4.55
					c0.44,1.91,0.76,3.21,0.95,3.91c0.19,0.7,0.53,1.7,1.02,2.99c0.49,1.29,1.1,2.57,1.81,3.83h-4.6c-0.58-1.09-1.1-2.26-1.56-3.5
					c-0.46-1.24-0.79-2.27-1-3.07c-0.2-0.8-0.51-2.09-0.92-3.86c-0.44-1.91-1.12-3.41-2.02-4.5c-0.9-1.09-2.34-1.64-4.32-1.64
					h-10.02v16.56H3343.56z M3347.65-1001.87h10.32c2.56,0,4.52-0.68,5.9-2.04c1.38-1.36,2.07-3.17,2.07-5.42
					c0-2.18-0.72-3.94-2.17-5.29c-1.45-1.35-3.52-2.02-6.21-2.02h-9.92V-1001.87z"/>
				<path id="XMLID_1627_" class="st9" d="M3411.6-981.84v-38.28h4.09v20.24h0.1l17.38-20.24h5.42l-14.51,16.56l15.33,21.72h-5.11
					l-12.88-18.76l-5.72,6.54v12.21H3411.6z"/>
			</g>
		</g>
	</g>
	<g id="XMLID_311_" class="st8">
		<g id="XMLID_445_">
			<path id="XMLID_507_" class="st9" d="M4728.86-1057.18v-66.17h-20.96v-11.86h58.99v11.86h-20.71v66.17H4728.86z"/>
			<path id="XMLID_505_" class="st9" d="M4789.88-1109.2l4.01-5.2c1.87-0.52,3.67-0.8,5.41-0.83c1.73-0.03,3.43-0.05,5.1-0.05
				c2.81,0,5.25,0.16,7.33,0.47c2.08,0.31,3.88,0.7,5.38,1.17c1.51,0.47,2.75,0.95,3.72,1.46c0.97,0.5,1.75,0.95,2.34,1.33
				l2.6,15.45l-14.57,1.82l-2.55-9.16c-0.69-0.1-1.39-0.21-2.08-0.31c-0.69-0.1-1.39-0.16-2.08-0.16c-3.36,0-6.24,0.62-8.63,1.85
				c-2.39,1.23-4.39,2.96-5.98,5.18v39.02h-16.49v-57.22l16.49-1.04V-1109.2z"/>
			<path id="XMLID_464_" class="st9" d="M4869.68-1114.41l16.49-1.04v58.26h-16.49v-5.2l-4.21,5.2c-1.94,0.59-4.04,0.88-6.29,0.88
				c-4.65,0-8.53-0.66-11.65-1.98c-3.12-1.32-5.63-3.08-7.52-5.28c-1.89-2.2-3.23-4.73-4.03-7.57c-0.8-2.84-1.2-5.79-1.2-8.84
				v-34.44l16.44-1.04v35.48c0,1.8,0.15,3.43,0.44,4.86c0.29,1.44,0.81,2.67,1.53,3.69c0.73,1.02,1.69,1.8,2.89,2.34
				c1.2,0.54,2.68,0.81,4.45,0.81c1.14,0,2.2-0.17,3.17-0.52c0.97-0.35,1.85-0.8,2.63-1.35c0.78-0.55,1.45-1.14,2-1.77
				c0.55-0.62,1-1.23,1.35-1.82V-1114.41z"/>
			<path id="XMLID_461_" class="st9" d="M4939.85-1098.9c-0.97-0.62-1.99-1.23-3.07-1.82c-1.08-0.59-2.24-1.12-3.49-1.59
				c-1.25-0.47-2.58-0.85-4-1.14c-1.42-0.29-2.95-0.44-4.58-0.44c-1.49,0-3.03,0.07-4.6,0.21c-1.58,0.14-3.01,0.39-4.29,0.75
				c-1.28,0.36-2.34,0.87-3.17,1.51c-0.83,0.64-1.25,1.45-1.25,2.42c0,0.9,0.47,1.67,1.4,2.31c0.94,0.64,2.12,1.21,3.54,1.69
				c1.42,0.49,2.97,0.9,4.66,1.25c1.68,0.35,3.29,0.68,4.81,0.99c1.77,0.38,3.49,0.76,5.15,1.14c1.66,0.38,3.02,0.76,4.06,1.14
				c1.73,0.69,3.37,1.54,4.92,2.55c1.54,1.01,2.9,2.14,4.06,3.41c1.16,1.27,2.08,2.64,2.76,4.14c0.68,1.49,1.01,3.07,1.01,4.73
				c0,2.32-0.46,4.41-1.38,6.27c-0.92,1.86-2.17,3.49-3.75,4.92c-1.58,1.42-3.4,2.65-5.46,3.69c-2.06,1.04-4.25,1.89-6.55,2.55
				c-2.31,0.66-4.66,1.14-7.05,1.46c-2.39,0.31-4.68,0.47-6.87,0.47c-2.08,0-4.14-0.15-6.19-0.44c-2.05-0.29-4-0.7-5.88-1.22
				c-1.87-0.52-3.62-1.14-5.23-1.85c-1.61-0.71-3.01-1.48-4.19-2.31l5.1-10.92c2.39,1.46,4.93,2.66,7.62,3.62
				c2.69,0.95,5.64,1.43,8.87,1.43c0.8,0,1.72-0.04,2.78-0.13c1.06-0.09,2.15-0.24,3.28-0.47c1.13-0.23,2.25-0.52,3.36-0.88
				c1.11-0.36,2.1-0.82,2.96-1.38c0.87-0.55,1.57-1.22,2.11-2c0.54-0.78,0.81-1.69,0.81-2.73c0-0.94-0.42-1.74-1.25-2.42
				c-0.83-0.68-1.89-1.26-3.17-1.74c-1.28-0.49-2.69-0.89-4.21-1.22c-1.53-0.33-2.98-0.63-4.37-0.91c-1.01-0.21-2.02-0.42-3.04-0.65
				c-1.02-0.23-2-0.46-2.94-0.7c-0.94-0.24-1.8-0.49-2.6-0.75s-1.47-0.53-2.03-0.81h0.05c-2.29-1.07-4.19-2.21-5.7-3.41
				c-1.51-1.2-2.71-2.43-3.59-3.69c-0.88-1.27-1.51-2.58-1.87-3.93s-0.55-2.72-0.55-4.11c0-2.64,0.76-4.92,2.29-6.84
				s3.56-3.52,6.11-4.79c2.55-1.27,5.48-2.2,8.79-2.81c3.31-0.61,6.77-0.91,10.38-0.91c1.94,0,3.89,0.15,5.85,0.44
				c1.96,0.3,3.82,0.68,5.59,1.14s3.38,1,4.84,1.59c1.46,0.59,2.65,1.18,3.59,1.77L4939.85-1098.9z"/>
			<path id="XMLID_459_" class="st9" d="M4984.22-1077.37c0,1.77,0.04,3.25,0.13,4.45c0.09,1.2,0.27,2.16,0.55,2.89
				c0.28,0.73,0.66,1.25,1.14,1.56s1.14,0.47,1.98,0.47c1.63,0,3.16-0.2,4.58-0.6c1.42-0.4,2.73-0.88,3.93-1.46s2.29-1.19,3.28-1.85
				c0.99-0.66,1.85-1.23,2.58-1.72l5.41,9.42c-0.45,0.38-1.24,1.01-2.37,1.87c-1.13,0.87-2.63,1.75-4.5,2.65
				c-1.87,0.9-4.13,1.69-6.79,2.37s-5.71,1.01-9.18,1.01c-3.75,0-6.75-0.59-9.03-1.77c-2.27-1.18-4.01-2.77-5.2-4.79
				c-1.2-2.01-1.99-4.37-2.37-7.07c-0.38-2.71-0.57-5.57-0.57-8.58v-24.24h-12.59v-11.65h12.59v-10.92l16.23-5.72v16.65h23.88
				l-1.4,11.65h-22.26V-1077.37z"/>
			<path id="XMLID_457_" class="st9" d="M5032.86-1129.08l-8.84,2.08h-9.16l-1.4-11.65h32.25v61.28c0,1.77,0.17,3.25,0.52,4.45
				c0.35,1.2,0.81,2.16,1.38,2.89c0.57,0.73,1.22,1.25,1.95,1.56c0.73,0.31,1.46,0.47,2.18,0.47c0.97,0,1.86-0.15,2.68-0.44
				c0.81-0.29,1.57-0.67,2.26-1.12c0.69-0.45,1.33-0.96,1.9-1.53c0.57-0.57,1.08-1.14,1.53-1.69l5.62,10.04
				c-0.38,0.31-0.92,0.82-1.61,1.53c-0.69,0.71-1.62,1.43-2.78,2.16c-1.16,0.73-2.6,1.37-4.32,1.92c-1.72,0.55-3.79,0.83-6.22,0.83
				c-3.75,0-6.97-0.59-9.68-1.77c-2.71-1.18-4.94-2.77-6.71-4.79c-1.77-2.01-3.08-4.37-3.93-7.07s-1.27-5.57-1.27-8.58v-45.88
				L5032.86-1129.08z"/>
			<path id="XMLID_454_" class="st9" d="M5087.02-1104.83l-8.84,2.08h-9.1l-1.46-11.65h32.77v35.22c0,1.42,0.17,2.73,0.52,3.93
				c0.35,1.2,0.83,2.22,1.46,3.07c0.62,0.85,1.37,1.52,2.24,2c0.87,0.49,1.82,0.73,2.86,0.73c2.29,0,4.3-0.38,6.03-1.14
				c1.73-0.76,3.5-2.01,5.31-3.75l3.07,12.07c-0.49,0.38-1.09,0.9-1.82,1.56c-0.73,0.66-1.69,1.32-2.89,1.98
				c-1.2,0.66-2.66,1.23-4.4,1.72c-1.73,0.49-3.83,0.73-6.29,0.73c-3.99,0-7.43-0.62-10.33-1.87c-2.9-1.25-5.29-2.94-7.18-5.07
				c-1.89-2.13-3.3-4.61-4.21-7.44c-0.92-2.83-1.38-5.82-1.38-8.97v-20.5L5087.02-1104.83z M5082.91-1135.27h17.53v13.58h-17.53
				V-1135.27z"/>
			<path id="XMLID_452_" class="st9" d="M5144.6-1057.18h-16.49v-57.22l16.49-1.04v6.24l4-5.2c1.32-0.35,2.73-0.58,4.24-0.7
				c1.51-0.12,3.27-0.18,5.28-0.18c3.16,0,6,0.47,8.53,1.4c2.53,0.94,4.67,2.26,6.42,3.98c1.75,1.72,3.09,3.8,4.03,6.24
				s1.4,5.18,1.4,8.19v38.29h-16.49v-38.29c0-1.42-0.22-2.64-0.65-3.67c-0.43-1.02-1-1.86-1.69-2.52c-0.69-0.66-1.49-1.14-2.39-1.46
				s-1.84-0.47-2.81-0.47c-2.18,0-4.03,0.36-5.54,1.07c-1.51,0.71-2.96,1.81-4.34,3.3V-1057.18z"/>
			<path id="XMLID_449_" class="st9" d="M5241.73-1065.4c-1.39,1.28-2.88,2.47-4.47,3.56c-1.6,1.09-3.36,2.05-5.31,2.86
				c-1.94,0.82-4.09,1.46-6.45,1.92c-2.36,0.47-4.96,0.7-7.8,0.7c-4.99,0-9.39-0.81-13.19-2.44c-3.8-1.63-6.98-3.81-9.55-6.53
				c-2.57-2.72-4.5-5.85-5.8-9.39c-1.3-3.54-1.95-7.23-1.95-11.08c0-2.46,0.29-4.9,0.88-7.31c0.59-2.41,1.46-4.7,2.6-6.87
				c1.14-2.17,2.54-4.19,4.19-6.06c1.65-1.87,3.54-3.49,5.67-4.84c2.13-1.35,4.49-2.42,7.08-3.2c2.58-0.78,5.37-1.17,8.35-1.17
				c4.16,0,7.87,0.62,11.13,1.85c3.26,1.23,6.02,2.95,8.27,5.15c2.25,2.2,3.97,4.85,5.15,7.93c1.18,3.09,1.77,6.5,1.77,10.25
				c0,0.94-0.06,2.17-0.18,3.69c-0.12,1.53-0.27,3.17-0.44,4.94h-38.86c0.07,1.87,0.59,3.65,1.56,5.33c0.97,1.68,2.21,3.15,3.72,4.4
				c1.51,1.25,3.19,2.25,5.04,2.99c1.86,0.75,3.72,1.12,5.59,1.12c1.77,0,3.48-0.19,5.12-0.57c1.65-0.38,3.14-0.85,4.47-1.4
				c1.33-0.55,2.5-1.13,3.49-1.72c0.99-0.59,1.72-1.09,2.21-1.51L5241.73-1065.4z M5227-1092.14c0-1.6-0.23-3.1-0.7-4.53
				c-0.47-1.42-1.15-2.68-2.05-3.77c-0.9-1.09-2.03-1.96-3.38-2.6c-1.35-0.64-2.91-0.96-4.68-0.96s-3.31,0.26-4.63,0.78
				c-1.32,0.52-2.45,1.17-3.38,1.95s-1.7,1.6-2.29,2.47c-0.59,0.87-1.02,1.63-1.3,2.29l-4.73,5.36l9-0.94L5227-1092.14z"/>
			<path id="XMLID_447_" class="st9" d="M5294.63-1098.9c-0.97-0.62-1.99-1.23-3.07-1.82c-1.08-0.59-2.24-1.12-3.49-1.59
				c-1.25-0.47-2.58-0.85-4-1.14c-1.42-0.29-2.95-0.44-4.58-0.44c-1.49,0-3.03,0.07-4.6,0.21c-1.58,0.14-3.01,0.39-4.29,0.75
				c-1.28,0.36-2.34,0.87-3.17,1.51c-0.83,0.64-1.25,1.45-1.25,2.42c0,0.9,0.47,1.67,1.4,2.31c0.94,0.64,2.12,1.21,3.54,1.69
				c1.42,0.49,2.97,0.9,4.66,1.25c1.68,0.35,3.29,0.68,4.81,0.99c1.77,0.38,3.49,0.76,5.15,1.14c1.66,0.38,3.02,0.76,4.06,1.14
				c1.73,0.69,3.37,1.54,4.92,2.55c1.54,1.01,2.9,2.14,4.06,3.41c1.16,1.27,2.08,2.64,2.76,4.14c0.68,1.49,1.01,3.07,1.01,4.73
				c0,2.32-0.46,4.41-1.38,6.27c-0.92,1.86-2.17,3.49-3.75,4.92c-1.58,1.42-3.4,2.65-5.46,3.69c-2.06,1.04-4.25,1.89-6.55,2.55
				c-2.31,0.66-4.66,1.14-7.05,1.46c-2.39,0.31-4.68,0.47-6.87,0.47c-2.08,0-4.14-0.15-6.19-0.44c-2.05-0.29-4-0.7-5.88-1.22
				c-1.87-0.52-3.62-1.14-5.23-1.85c-1.61-0.71-3.01-1.48-4.19-2.31l5.1-10.92c2.39,1.46,4.93,2.66,7.62,3.62
				c2.69,0.95,5.64,1.43,8.87,1.43c0.8,0,1.72-0.04,2.78-0.13c1.06-0.09,2.15-0.24,3.28-0.47c1.13-0.23,2.25-0.52,3.36-0.88
				c1.11-0.36,2.1-0.82,2.96-1.38c0.87-0.55,1.57-1.22,2.11-2c0.54-0.78,0.81-1.69,0.81-2.73c0-0.94-0.42-1.74-1.25-2.42
				c-0.83-0.68-1.89-1.26-3.17-1.74c-1.28-0.49-2.69-0.89-4.21-1.22c-1.53-0.33-2.98-0.63-4.37-0.91c-1.01-0.21-2.02-0.42-3.04-0.65
				c-1.02-0.23-2-0.46-2.94-0.7c-0.94-0.24-1.8-0.49-2.6-0.75s-1.47-0.53-2.03-0.81h0.05c-2.29-1.07-4.19-2.21-5.7-3.41
				c-1.51-1.2-2.71-2.43-3.59-3.69c-0.88-1.27-1.51-2.58-1.87-3.93s-0.55-2.72-0.55-4.11c0-2.64,0.76-4.92,2.29-6.84
				s3.56-3.52,6.11-4.79c2.55-1.27,5.48-2.2,8.79-2.81c3.31-0.61,6.77-0.91,10.38-0.91c1.94,0,3.89,0.15,5.85,0.44
				c1.96,0.3,3.82,0.68,5.59,1.14s3.38,1,4.84,1.59c1.46,0.59,2.65,1.18,3.59,1.77L5294.63-1098.9z"/>
		</g>
		<g id="XMLID_312_">
			<g id="XMLID_2026_">
				<path id="XMLID_2177_" class="st9" d="M4768.27-988.82v-38.28h14.41c3.71,0,6.65,1.02,8.82,3.07c2.16,2.04,3.25,4.75,3.25,8.13
					c0,3.48-1.11,6.22-3.32,8.23c-2.22,2.01-5.13,3.02-8.74,3.02h-10.32v15.84H4768.27z M4772.36-1008.09h9.71
					c2.69,0,4.78-0.66,6.26-1.97c1.48-1.31,2.22-3.26,2.22-5.85c0-2.52-0.74-4.44-2.22-5.75c-1.48-1.31-3.6-1.97-6.36-1.97h-9.61
					V-1008.09z"/>
				<path id="XMLID_2174_" class="st9" d="M4832.31-988.82v-38.28h14.92c3.75,0,6.63,1.01,8.64,3.04c2.01,2.03,3.02,4.52,3.02,7.49
					c0,2.69-0.68,4.87-2.04,6.54c-1.36,1.67-2.86,2.73-4.5,3.17c1.43,0.75,2.47,1.67,3.12,2.76c0.65,1.09,1.18,2.61,1.58,4.55
					c0.44,1.91,0.76,3.21,0.95,3.91c0.19,0.7,0.53,1.7,1.02,2.99c0.49,1.29,1.1,2.57,1.81,3.83h-4.6c-0.58-1.09-1.1-2.26-1.56-3.5
					c-0.46-1.24-0.79-2.27-1-3.07c-0.2-0.8-0.51-2.09-0.92-3.86c-0.44-1.91-1.12-3.41-2.02-4.5c-0.9-1.09-2.34-1.64-4.32-1.64
					h-10.02v16.56H4832.31z M4836.39-1008.86h10.32c2.56,0,4.52-0.68,5.9-2.04c1.38-1.36,2.07-3.17,2.07-5.42
					c0-2.18-0.72-3.94-2.17-5.29c-1.45-1.35-3.52-2.02-6.21-2.02h-9.92V-1008.86z"/>
				<path id="XMLID_2059_" class="st9" d="M4894.4-1007.94c0-6,1.45-10.84,4.34-14.54c2.9-3.7,6.76-5.55,11.6-5.55
					c4.87,0,8.73,1.84,11.58,5.52c2.84,3.68,4.27,8.55,4.27,14.62c0,6.13-1.44,11-4.32,14.59c-2.88,3.6-6.72,5.39-11.53,5.39
					c-4.84,0-8.71-1.81-11.6-5.44C4895.84-996.98,4894.4-1001.84,4894.4-1007.94z M4898.59-1007.94c0,5.04,1.05,9.06,3.17,12.04
					c2.11,2.98,4.97,4.47,8.59,4.47c3.54,0,6.37-1.46,8.48-4.4c2.11-2.93,3.17-6.95,3.17-12.06c0-5.04-1.02-9.08-3.07-12.11
					c-2.04-3.03-4.91-4.55-8.59-4.55c-3.61,0-6.47,1.5-8.59,4.5C4899.64-1017.05,4898.59-1013.01,4898.59-1007.94z"/>
				<path id="XMLID_2057_" class="st9" d="M4958.53-1023.63v-3.48h27.39v3.48h-11.65v34.81h-4.09v-34.81H4958.53z"/>
				<path id="XMLID_2054_" class="st9" d="M5018.58-1007.94c0-6,1.45-10.84,4.34-14.54c2.9-3.7,6.76-5.55,11.6-5.55
					c4.87,0,8.73,1.84,11.58,5.52c2.84,3.68,4.27,8.55,4.27,14.62c0,6.13-1.44,11-4.32,14.59c-2.88,3.6-6.72,5.39-11.53,5.39
					c-4.84,0-8.71-1.81-11.6-5.44C5020.02-996.98,5018.58-1001.84,5018.58-1007.94z M5022.77-1007.94c0,5.04,1.05,9.06,3.17,12.04
					c2.11,2.98,4.97,4.47,8.59,4.47c3.54,0,6.37-1.46,8.48-4.4c2.11-2.93,3.17-6.95,3.17-12.06c0-5.04-1.02-9.08-3.07-12.11
					c-2.04-3.03-4.91-4.55-8.59-4.55c-3.61,0-6.47,1.5-8.59,4.5C5023.82-1017.05,5022.77-1013.01,5022.77-1007.94z"/>
				<path id="XMLID_2052_" class="st9" d="M5085.88-1007.94c0-6.24,1.52-11.14,4.55-14.72c3.03-3.58,6.97-5.37,11.81-5.37
					c3,0,5.54,0.83,7.64,2.48c2.1,1.65,3.67,3.62,4.73,5.9l-3.48,1.23c-2.28-4.09-5.28-6.13-9-6.13c-3.68,0-6.61,1.51-8.79,4.52
					c-2.18,3.02-3.27,7.04-3.27,12.09c0,5.11,1.11,9.14,3.32,12.09c2.21,2.95,5.13,4.42,8.74,4.42c2.28,0,4.28-0.64,5.98-1.92
					c1.7-1.28,2.98-2.85,3.83-4.73l3.68,1.18c-1.16,2.49-2.85,4.61-5.06,6.36c-2.21,1.75-4.99,2.63-8.33,2.63
					c-4.8,0-8.73-1.78-11.78-5.34C5087.4-996.8,5085.88-1001.7,5085.88-1007.94z"/>
				<path id="XMLID_2049_" class="st9" d="M5149.91-1007.94c0-6,1.45-10.84,4.34-14.54c2.89-3.7,6.76-5.55,11.6-5.55
					c4.87,0,8.73,1.84,11.58,5.52c2.84,3.68,4.27,8.55,4.27,14.62c0,6.13-1.44,11-4.32,14.59c-2.88,3.6-6.72,5.39-11.53,5.39
					c-4.84,0-8.71-1.81-11.6-5.44C5151.36-996.98,5149.91-1001.84,5149.91-1007.94z M5154.1-1007.94c0,5.04,1.06,9.06,3.17,12.04
					c2.11,2.98,4.97,4.47,8.59,4.47c3.54,0,6.37-1.46,8.48-4.4c2.11-2.93,3.17-6.95,3.17-12.06c0-5.04-1.02-9.08-3.07-12.11
					c-2.04-3.03-4.91-4.55-8.59-4.55c-3.61,0-6.47,1.5-8.59,4.5C5155.16-1017.05,5154.1-1013.01,5154.1-1007.94z"/>
				<path id="XMLID_2027_" class="st9" d="M5219.87-988.82v-38.28h4.09v34.81h18.19v3.48H5219.87z"/>
			</g>
		</g>
	</g>
	<path id="XMLID_1314_" class="st6" d="M3918.59-1101.88"/>
	<path id="XMLID_1313_" class="st7" d="M3918.59-1101.88"/>
	<path id="XMLID_310_" class="st6" d="M3918.59,1455.15"/>
	<path id="XMLID_309_" class="st7" d="M3918.59,1455.15"/>
</g>
<g id="INLINE" class="st0">
</g>
<g id="HORSE" class="st0">
	<path id="XMLID_904_" class="st10" d="M-1720.98-2784.3l20.93,14.11l-22.61-8.6l-5.06-1.93l-7.01-2.66l-14.24-5.43l-110.86-42.18
		l21.73-32.24l22.1,14.9l33.75,22.75l56.58,38.14L-1720.98-2784.3z M-1717.4-2795.99l16.86,16.97l-18.28-12.32l-4.69-3.16
		l-98.42-66.34l-19.61-13.21l-56.06-37.79l29.4-35.93l60.27,60.67l4.16,4.19l82.05,82.58L-1717.4-2795.99z M-1893.22-3042.79
		l-17.68,16.31l34.5-81.03l28.99-8.55l-16.1,37.57l-5.89,13.74L-1893.22-3042.79z M-1806.64-3138.4l-29.61,43.07l-20.47,18.88
		l1.55-3.62l7.47-17.43l23.74-55.4l23.97-1.93l4.93-0.4L-1806.64-3138.4z M-1830.9-2954.76l62.5,20.2l0.56,1.09l3.24,6.21
		l10.11,19.39l2.52,4.82l29.62,56.82l9.14,18.05l3.52,6.96l19.24,37.99l-22.47-27.44l-4.11-5.02l-62.7-76.57l-3.6-4.4l-34.23-41.8
		l-5.47-6.68L-1830.9-2954.76z M-1396.75-2926.97l-44.16,15.7l-3.13,1.11l-4.41-5.41l-17.13-21.02L-1396.75-2926.97z
		 M-1567.13-2997.72l20.13,13.2l4.53,2.97l52.48,34.4l-64.61-12.41l-14.83-2.84l-88.67-17.03l32.25-34.03l13.31-14.04l35.64,23.37
		L-1567.13-2997.72z M-1578.24-3063.71l44.68,54.84l3.68,4.52l39.59,48.59l-48.76-31.97l-4.53-2.97l-25.54-16.74l-9.5-6.23
		l-29-19.02l21.53-22.72l5.9-6.23L-1578.24-3063.71z M-1513.18-3034.62l28.81,74.97l-41.84-51.35l-3.68-4.52l-43.47-53.34
		l33.45-35.29l24.2,62.95L-1513.18-3034.62z M-1527.45-3091.41l23.54,28.81l3.68,4.51l15.41,18.85l8.8,10.77l46.62,57.05l2.08,2.54
		l-3.31,1.77l-23.62,12.66l-4.87,2.61l-12.19,6.53l-37.43-97.37l-2.53-6.59L-1527.45-3091.41z M-1858.58-2968.76l4.76,3.06
		l10.22,6.57l9.55,11.66l5.47,6.68l38.33,46.82l3.6,4.4l64.73,79.05l-74.7-75.18l-4.16-4.18l-56.62-56.99l-6.95-6.99l-1.55-1.56
		l-0.04-0.04l-3.55-4.07l-32.16-36.86L-1858.58-2968.76z M-1848.69-2977.12l1.46,5.85l0.43,1.7l-1.39-0.89l-4.76-3.05l-60.4-38.8
		l-1.5-0.96l17.54-16.18l28.86-26.61l5.06,20.24l1.32,5.27L-1848.69-2977.12z M-1794.85-3000.56l70.21,76.22l3.93,4.26l1.2,4.43
		l15.51,57.36l2.65,9.81l16.29,60.27l-21.65-42.75l-3.52-6.96l-5.84-11.54l-29.28-56.16l-2.51-4.82l-7.79-14.94l-3.23-6.21
		L-1794.85-3000.56z M-1711.88-2922.69l40.64-42.88l2.3-2.43l-0.52,15.08l-5.98,173.36l-22.06-81.6l-2.65-9.81l-13.1-48.48
		l-0.38-1.39L-1711.88-2922.69z M-1815.09-3105.26l-11.69,56.42l-1.28,6.19l-12.09,58.31l-1.39,6.73l-1.15-4.58l-12.7-50.74
		l-1.32-5.27l-5.83-23.31L-1815.09-3105.26z M-1752.06-3205.34l34.81,0.28l-55.93,51.58l-4.04,3.72l-35.65,32.88l27.06-39.36
		l3.06-4.46l22-32L-1752.06-3205.34z M-1636.82-3198.26l-42.12-35.6l-6.06-5.12l2.66-1.72l28.84-21.38L-1636.82-3198.26z
		 M-1813.55-3047.81l-0.24,26.17l5.44,10.43l2.56,4.91l32.75,62.83l-64.08-20.71l3.93-18.95l1.78-8.58l11.13-53.7l1.28-6.19
		l5.75-27.73l-0.24,25.76L-1813.55-3047.81z M-1793.31-3060.74l-3.91,7.12l-9.39,17.13l0.13-13.84l0.05-5.76l0.53-57.65l34.4-31.72
		l4.04-3.72l45.72-42.16l-29.72,54.23l-2.63,4.79L-1793.31-3060.74z M-1755.52-3048.79l30.82,113.99l-72.52-78.74l-3.66-3.98
		l-5.06-5.49l18.72-34.16l3.91-7.13l34.93-63.73l2.62-4.79l24.58-44.86l-15.44,51.75l-1.65,5.52l-13.39,44.85l-1.92,6.42l-3.9,13.06
		l0.41,1.52L-1755.52-3048.79z M-1747.34-3045.55l77.19,68.58l-45.63,48.15L-1747.34-3045.55z M-1688.4-3082.79l6.63,35.48l1.06,5.7
		l10.27,54.96l-75.45-67.04l-3.91-3.47l0.78-2.6l3.67-12.29l1.91-6.41l11.16-37.39l1.65-5.52l21.54-72.15l17.94,96.06l1.07,5.72
		l0.2,1.1L-1688.4-3082.79z M-1656.69-3105.45l36.21,67.11l3.08,5.71l-2.21,2.34l-43.09,45.47l-0.19,0.21l-0.06-0.28l-10.34-55.34
		l-1.07-5.7l-5.71-30.56l-1.47-7.88l-1.89-10.12l-1.1-5.91l-16.17-86.6l40.87,75.74L-1656.69-3105.45z M-1596.47-3113.18l6.79,27.61
		l-34.39-30.21l23.69,2.22l2.05,0.19L-1596.47-3113.18z M-1582.73-3069.22L-1582.73-3069.22l-4.91,5.18l-24.66,26.02l-37.83-70.11
		l-3.22-5.98l-41.72-77.32l-8.63-16l14.95-23.24l77.69,95.39l11.61,16.18l-6.49-1.03l-26.35-2.33l-11.96-1.42l3.57,3.6l0.48,0.39
		l6.37,5.08L-1582.73-3069.22z M-1575.62-3137.3l31.87,26.94l-34.09,35.98l-13.38-44.27l0,0l-1.81-3.45l0,0l-71.29-90.17l84.3,71.25
		L-1575.62-3137.3z M-1408.66-2935.66l18.09-32.56l-0.82,36.11L-1408.66-2935.66z M-1420.37-2964.62l25.61-10.54l-21.3,37.97
		l-43.75-6.3l2.73-1.46l4.86-2.61l18.9-10.13l6.63-3.55L-1420.37-2964.62z M-1429.83-3014.09l5.69,4.81l30.71,25.95l-27.38,11.26
		l-2.07-2.54l-5-6.12l-53.26-65.17l-8.8-10.77l-6.62-8.1l-3.68-4.51l-11.47-14.03l13.1,11.07l4.21,3.56l1.23,1.04l7.5,6.34
		L-1429.83-3014.09z M-1582-3154.61l-44.3-35.5c61.23-55.48,122.1-109.96,186.44-161.76
		C-1486.74-3285.72-1535.11-3220.76-1582-3154.61z M-1401.56-3396.59l-226.86,196.86l-20.64-72.93
		c-14.65,10.32-30.29,19.97-44.17,31.31l-18.54,29.28l-43.98-0.35l-10.81,15.73l-23.36,33.97l-38.84,3.14l-15.05,35.11l-37.78,11.15
		l-42.74,101.01l51.26,59.35l-34.89,42.64l64.01,43.15l-26.7,39.61l201.22,76.41l8.4-221.65l185.61,35.87l29.07,35.1l58.57-20.83
		l3.25-1.16l1.47-59.95l-109.97-92.94l-80.43-72.56C-1516.16-3231.72-1458.86-3314.16-1401.56-3396.59z"/>
</g>
<g id="ALL">
</g>
<g id="Layer_9">
</g>
<g id="Layer_10">
</g>
</svg>
